<svg xmlns="http://www.w3.org/2000/svg" viewBox="0 0 50 50"><defs><style>.cls-1{fill:none;}.cls-2{fill:#242424;}</style></defs><g id="Layer_2" data-name="Layer 2"><g id="Layer_1-2" data-name="Layer 1"><rect class="cls-1" width="50" height="50" rx="4"/><path class="cls-2" d="M25,38.72c-9,0-13-14-13.9-21.46L11,16.14h1.12c3.64,0,6-1.26,10.82-3.78L25,11.28l.45.21c.76.36,1.62.81,2.55,1.29,3.09,1.61,7.33,3.82,9.74,3.38L39,15.91l-.15,1.35C38,24.68,34,38.72,25,38.72ZM13.23,18.1c.9,6.06,4.32,18.62,11.76,18.62S35.8,24.3,36.73,18.21c-2.94-.13-6.64-2.06-9.7-3.66l-2-1-1.17.62C19.39,16.47,16.75,17.86,13.23,18.1Z"/><path class="cls-2" d="M25,18.29a6.2,6.2,0,1,0,6.19,6.19A6.19,6.19,0,0,0,25,18.29Zm3.66,4.17L24.1,27l-.11.07-.06,0a.54.54,0,0,1-.21.05h0l-.17,0-.05,0-.09,0-2-1.39a.42.42,0,0,1-.08-.64.57.57,0,0,1,.72-.07l1.59,1.12,4.26-4.2a.55.55,0,0,1,.72,0A.42.42,0,0,1,28.68,22.46Z"/></g></g></svg>