<svg xmlns="http://www.w3.org/2000/svg" viewBox="0 0 50 50"><defs><style>.cls-1{fill:none;}.cls-2{fill:#242424;}</style></defs><g id="Layer_2" data-name="Layer 2"><g id="Layer_1-2" data-name="Layer 1"><rect class="cls-1" width="50" height="50" rx="11.24"/><path class="cls-2" d="M17.13,18l1.93,2.34a1.65,1.65,0,0,1,.41-.54,1.53,1.53,0,0,1,1-.35,1.53,1.53,0,0,1,1,2.72,1.45,1.45,0,0,1-.61.3l1.94,2.34-1.91,1.58a1.5,1.5,0,0,1,.33.29A1.54,1.54,0,0,1,21,28.84a1.57,1.57,0,0,1-1,.35,1.52,1.52,0,0,1-1.18-.56,1.45,1.45,0,0,1-.22-.38l-2.65,2.19-1.37-1.65.13-.1a2.29,2.29,0,0,0-1.45-4.05,2.3,2.3,0,0,0-1.46.53s-.07.08-.11.11l-1.37-1.66L17.13,18m.27-2.82-1.55,1.27L9,22.08,7.49,23.36,8.76,24.9l1.37,1.66,1.37,1.65,1.56-1.48,0-.05a.33.33,0,0,1,.14,0,.3.3,0,0,1,.22.11.26.26,0,0,1,.06.21.26.26,0,0,1-.06.15l-.06.05L11.66,28.4,13,30.06l1.37,1.66,1.28,1.54L17.21,32l1.34-1.11a3.52,3.52,0,0,0,3.69-.5A3.51,3.51,0,0,0,23.51,28a3.62,3.62,0,0,0-.07-1.14l.59-.49,1.54-1.28L24.3,23.54l-.73-.88a3.6,3.6,0,0,0,.4-1.34,3.52,3.52,0,0,0-3.52-3.87,3.39,3.39,0,0,0-1.05.16l-.73-.89L17.4,15.18Z"/><path class="cls-2" d="M27.21,30.44l5.63,6.82L30.5,39.2a1.52,1.52,0,0,1,.33,2.57,1.49,1.49,0,0,1-1,.35,1.54,1.54,0,0,1-1.19-.55,1.58,1.58,0,0,1-.3-.61L26,42.89,24.45,41a1.26,1.26,0,0,1-.29.32,1.5,1.5,0,0,1-1,.36,1.53,1.53,0,0,1-1-2.72,1.29,1.29,0,0,1,.37-.22l-2.19-2.66,1.66-1.37s.06.1.09.14a2.29,2.29,0,0,0,1.77.83,2.28,2.28,0,0,0,1.76-3.74l-.11-.12,1.65-1.37m.27-2.81L25.94,28.9l-1.66,1.37-1.65,1.37,1.48,1.55.05.06a.29.29,0,0,1-.07.36.28.28,0,0,1-.18.06.29.29,0,0,1-.18-.06l-.05-.07-1.24-1.75-1.66,1.37-1.66,1.37L17.58,35.8l1.27,1.55L20,38.69a3.2,3.2,0,0,0-.29,1.1,3.54,3.54,0,0,0,3.52,3.88,3.58,3.58,0,0,0,.8-.1l.49.6,1.28,1.54,1.54-1.27.88-.74a3.46,3.46,0,0,0,1.68.42,3.53,3.53,0,0,0,3.37-4.58l.89-.73,1.54-1.28L34.39,36l-5.63-6.82-1.28-1.54Z"/><path class="cls-2" d="M30.06,7.11,32,9.45a1.52,1.52,0,0,1,.41-.54,1.57,1.57,0,0,1,1-.35,1.53,1.53,0,0,1,1,2.72,1.48,1.48,0,0,1-.6.3l1.93,2.35-1.9,1.57a1.26,1.26,0,0,1,.32.29,1.54,1.54,0,0,1-.2,2.16,1.59,1.59,0,0,1-1,.35,1.52,1.52,0,0,1-1.18-.56,1.17,1.17,0,0,1-.22-.37l-2.66,2.19L27.5,17.9l.14-.09a2.29,2.29,0,0,0-1.46-4,2.27,2.27,0,0,0-1.45.52l-.12.12-1.37-1.66,6.82-5.63m.27-2.82L28.79,5.56,22,11.19l-1.54,1.28L21.7,14l1.37,1.66,1.37,1.66L26,15.84l.06-.05a.28.28,0,0,1,.13,0,.3.3,0,0,1,.23.1.32.32,0,0,1,.06.21.32.32,0,0,1-.06.16l-.07,0-1.75,1.24L26,19.17l1.37,1.66,1.27,1.54,1.55-1.27L31.49,20a3.53,3.53,0,0,0,5-2.89A3.35,3.35,0,0,0,36.37,16l.6-.49,1.54-1.27-1.27-1.55-.74-.88a3.61,3.61,0,0,0,.41-1.34,3.55,3.55,0,0,0-3.52-3.87,3.71,3.71,0,0,0-1,.16l-.73-.89L30.33,4.29Z"/></g></g></svg>