<svg xmlns="http://www.w3.org/2000/svg" viewBox="0 0 50 50"><defs><style>.cls-1{fill:none;}.cls-2{fill:#242424;}</style></defs><g id="Layer_2" data-name="Layer 2"><g id="Layer_1-2" data-name="Layer 1"><rect class="cls-1" width="50" height="50" rx="11.24"/><path class="cls-2" d="M15.38,36a1,1,0,0,1-1-1l-.17-15.95a1,1,0,0,1,1-1L19.42,18a1.21,1.21,0,0,1,0-.19,3.78,3.78,0,0,1,.84-2.41A3.74,3.74,0,0,1,23.14,14h0A3.77,3.77,0,0,1,27,17.73a1.21,1.21,0,0,1,0,.19l4.22,0h0a1,1,0,0,1,1,1l0,3.34a3.7,3.7,0,0,1,2.45,1.07,3.76,3.76,0,0,1-2.37,6.45l.06,5.09a1,1,0,0,1-1,1l-3.89,0a.92.92,0,0,1-.73-.31,1,1,0,0,1-.27-.75c0-.06,0-.12,0-.18a3.06,3.06,0,0,0-.93-2.24,3.21,3.21,0,0,0-2.22-.89,3.12,3.12,0,0,0-3.09,3.16c0,.09,0,.15,0,.22a1,1,0,0,1-.26.75,1,1,0,0,1-.73.33l-3.88,0Zm.84-16,.15,14,1.9,0a5.13,5.13,0,0,1,5-4.47A5,5,0,0,1,26.94,31a5.12,5.12,0,0,1,1.49,2.9l1.9,0-.06-5.2a1,1,0,0,1,.39-.81,1,1,0,0,1,.88-.17,1.28,1.28,0,0,0,.5.08A1.79,1.79,0,0,0,33.79,26,1.79,1.79,0,0,0,32,24.2a2.05,2.05,0,0,0-.49.09,1,1,0,0,1-.89-.15,1,1,0,0,1-.41-.79l0-3.46-4.49.05a1,1,0,0,1-.85-.46,1,1,0,0,1-.07-1A1.74,1.74,0,0,0,23.16,16a1.79,1.79,0,0,0-1.36.66,1.72,1.72,0,0,0-.2,1.88A1,1,0,0,1,20.71,20Z"/></g></g></svg>