<svg xmlns="http://www.w3.org/2000/svg" viewBox="0 0 50 50"><defs><style>.cls-1{fill:none;}.cls-2{fill:#242424;}</style></defs><g id="Layer_2" data-name="Layer 2"><g id="Layer_1-2" data-name="Layer 1"><rect class="cls-1" width="50" height="50" rx="11.24"/><path class="cls-2" d="M17.84,33.81V15.31a2,2,0,0,1,.07-.56A1.06,1.06,0,0,1,19,14a1.08,1.08,0,0,1,1,.76c0,.1.05.2.08.33H33.15a1.09,1.09,0,0,1,1.18,1.23,1.47,1.47,0,0,1-.27.63c-.85,1.15-1.72,2.3-2.58,3.44l-.15.21.51.68c.75,1,1.52,2,2.27,3a1.09,1.09,0,0,1-.56,1.74,1.73,1.73,0,0,1-.51,0h-13v7.71c.38,0,.75,0,1.13,0A1.1,1.1,0,0,1,22,35.57a1,1,0,0,1-.79.42c-1.52,0-3,0-4.56,0a1.09,1.09,0,0,1,0-2.17C17.05,33.8,17.42,33.81,17.84,33.81Zm2.21-9.92H31l-.16-.24-1.72-2.28a1.12,1.12,0,0,1,0-1.53c.56-.76,1.13-1.52,1.7-2.27l.17-.25h-11Z"/></g></g></svg>