<svg xmlns="http://www.w3.org/2000/svg" viewBox="0 0 50 50"><defs><style>.cls-1{fill:none;}.cls-2{fill:#242424;}</style></defs><g id="Layer_2" data-name="Layer 2"><g id="Layer_1-2" data-name="Layer 1"><rect class="cls-1" width="50" height="50" rx="4"/><path class="cls-2" d="M33.19,36.69h-7l.22-1.18a2,2,0,0,0,.05-.43,2.32,2.32,0,0,0-.75-1.7,2.27,2.27,0,0,0-1.78-.58,1.76,1.76,0,0,0-.9.42c-1.23,1-1.22,1.72-1.11,2.29l.22,1.18H13.75V17.25H19.2c0-.15,0-.3,0-.45a4.3,4.3,0,0,1,4.88-4.25,4.33,4.33,0,0,1,3.54,3.11,4.1,4.1,0,0,1,.14,1.59h5.45v5.44A4.48,4.48,0,0,1,36,24a3.92,3.92,0,0,1,1.18,2,4.3,4.3,0,0,1-3.94,5.18Zm-4.78-2h2.78V28.92l1.23.28a2.34,2.34,0,0,0,.5.06,2.28,2.28,0,0,0,1.78-.84,2.31,2.31,0,0,0,.47-1.94,1.94,1.94,0,0,0-.6-1h0a2.11,2.11,0,0,0-2.15-.75L31.19,25V19.25H24.81l.71-1.44a2.21,2.21,0,0,0,.16-1.61,2.38,2.38,0,0,0-1.89-1.67,2.28,2.28,0,0,0-2.37,3.28l.71,1.44H15.75V34.69h4.12a4.54,4.54,0,0,1,1.85-3,3.65,3.65,0,0,1,2-.88,4.29,4.29,0,0,1,4.71,3.88Z"/></g></g></svg>