<svg xmlns="http://www.w3.org/2000/svg" viewBox="0 0 319 319"><defs><style>.cls-1{fill:#242424;}.cls-2{fill:none;stroke:#242424;stroke-miterlimit:10;stroke-width:2px;}</style></defs><g id="Layer_2" data-name="Layer 2"><g id="Layer_1-2" data-name="Layer 1"><path class="cls-1" d="M120.63,218.27a20.1,20.1,0,0,1-7.71-3.37,15.69,15.69,0,0,1-6.35-12.62q-.07-48,0-95.91a16.22,16.22,0,0,1,16-16c3.25,0,6.5,0,9.9,0V79.64h54.21V90.38h1.52c3.7.08,7.44-.16,11.08.32a15.85,15.85,0,0,1,13.42,15.16c.13,12,0,23.93,0,35.89a4.76,4.76,0,0,1-.07.58H201.92V107.46c0-4.14-2.11-6.24-6.25-6.24H186.8V112H132.59V101.26c-3.61,0-7.08-.14-10.54,0a5.21,5.21,0,0,0-4.66,5.15c0,.41,0,.81,0,1.22V201c0,4.4,2,6.41,6.48,6.41H184v10.84Zm55.18-117.11V90.48H143.46v10.68Z"/><path class="cls-1" d="M237.41,218.27c-4.82-4.88-9.66-9.74-14.44-14.66-.78-.8-1.24-.3-1.83,0a27.07,27.07,0,1,1-17.08-50.16c11-1.24,19.86,2.85,25.89,12.06s6,18.84.73,28.44a1.6,1.6,0,0,0,.32,2.35c4.79,4.66,9.52,9.37,14.27,14.06v.27l-7.59,7.59Zm-46.33-37.92a16.25,16.25,0,1,0,16.27-16.27A16.27,16.27,0,0,0,191.08,180.35Z"/><path class="cls-1" d="M154.25,166.12,136.09,148l7.46-7.45L154,151l21.58-21.59,7.92,7.93Z"/><circle class="cls-2" cx="159.5" cy="159.5" r="158.5"/></g></g></svg>