<svg xmlns="http://www.w3.org/2000/svg" viewBox="0 0 50 50"><defs><style>.cls-1{fill:none;}.cls-2{fill:#242424;}</style></defs><g id="Layer_2" data-name="Layer 2"><g id="Layer_1-2" data-name="Layer 1"><rect class="cls-1" width="50" height="50" rx="11.24"/><path class="cls-2" d="M33.74,36H16.26A2.26,2.26,0,0,1,14,33.74V16.26A2.26,2.26,0,0,1,16.26,14H28.87a1.11,1.11,0,0,1,0,2.21H16.26l-.05,17.53,17.53,0,0-9.72a1.11,1.11,0,1,1,2.21,0v9.67A2.26,2.26,0,0,1,33.74,36Z"/><path class="cls-2" d="M25,28.39a1.11,1.11,0,0,1-.69-.24l-4.25-3.38A1.11,1.11,0,1,1,21.44,23l4.25,3.38a1.1,1.1,0,0,1-.69,2Z"/><path class="cls-2" d="M25,28.39a1.1,1.1,0,0,1-.74-.28,1.12,1.12,0,0,1-.08-1.57l9.89-11A1.11,1.11,0,0,1,35.72,17l-9.9,11A1.08,1.08,0,0,1,25,28.39Z"/></g></g></svg>