<svg xmlns="http://www.w3.org/2000/svg" viewBox="0 0 62.3 62.3"><defs><style>.cls-1{fill:#242424;}</style></defs><g id="Layer_2" data-name="Layer 2"><g id="Layer_1-2" data-name="Layer 1"><g id="Circle"><path class="cls-1" d="M31.15,62.3A31.15,31.15,0,1,1,62.3,31.15,31.18,31.18,0,0,1,31.15,62.3Zm0-60A28.85,28.85,0,1,0,60,31.15,28.88,28.88,0,0,0,31.15,2.3Z"/></g><path class="cls-1" d="M31,39.91a3,3,0,0,1-2.38-4.81l13.68-18A3,3,0,1,1,47,20.73l-13.68,18A3,3,0,0,1,31,39.91Z"/><path class="cls-1" d="M31,39.91a3,3,0,0,1-2.33-1.1l-6.48-7.92a3,3,0,0,1,4.65-3.8L33.28,35A3,3,0,0,1,31,39.91Z"/><path class="cls-1" d="M43,26.85V43.69a1.68,1.68,0,0,1-1.68,1.68H19.7A1.68,1.68,0,0,1,18,43.69V22a1.68,1.68,0,0,1,1.68-1.68H38.94V18.91H19.7A3.13,3.13,0,0,0,16.58,22V43.69a3.12,3.12,0,0,0,3.12,3.12H41.35a3.13,3.13,0,0,0,3.13-3.12V26.85Z"/></g></g></svg>