<svg xmlns="http://www.w3.org/2000/svg" viewBox="0 0 322 322"><defs><style>.cls-1{fill:#242424;}.cls-2{fill:none;stroke:#242424;stroke-miterlimit:10;stroke-width:5px;}</style></defs><g id="Layer_2" data-name="Layer 2"><g id="Layer_1-2" data-name="Layer 1"><path class="cls-1" d="M122.13,219.77a20.1,20.1,0,0,1-7.71-3.37,15.69,15.69,0,0,1-6.35-12.62q-.07-48,0-95.91a16.22,16.22,0,0,1,16-16c3.25,0,6.5,0,9.9,0V81.14h54.21V91.88h1.52c3.7.08,7.44-.16,11.08.32a15.85,15.85,0,0,1,13.42,15.16c.13,12,0,23.93,0,35.89a4.76,4.76,0,0,1-.07.58H203.42V109c0-4.14-2.11-6.24-6.25-6.24H188.3v10.73H134.09V102.76c-3.61,0-7.08-.14-10.54,0a5.21,5.21,0,0,0-4.66,5.15c0,.41,0,.81,0,1.22v93.34c0,4.4,2,6.41,6.48,6.41h60.18v10.84Zm55.18-117.11V92H145v10.68Z"/><path class="cls-1" d="M238.91,219.77c-4.82-4.88-9.66-9.74-14.44-14.66-.78-.8-1.24-.3-1.83,0A27.07,27.07,0,1,1,205.56,155c11-1.24,19.86,2.85,25.89,12.06s6,18.84.73,28.44a1.6,1.6,0,0,0,.32,2.35c4.79,4.66,9.52,9.37,14.27,14.06v.27l-7.59,7.59Zm-46.33-37.92a16.25,16.25,0,1,0,16.27-16.27A16.27,16.27,0,0,0,192.58,181.85Z"/><path class="cls-1" d="M155.75,167.62l-18.16-18.16,7.46-7.45,10.41,10.47L177,130.89l7.92,7.93Z"/><circle class="cls-2" cx="161" cy="161" r="158.5"/></g></g></svg>