<?xml version="1.0" encoding="utf-8"?>
<!-- Generator: Adobe Illustrator 25.4.1, SVG Export Plug-In . SVG Version: 6.00 Build 0)  -->
<svg version="1.1" id="Layer_1" xmlns="http://www.w3.org/2000/svg" xmlns:xlink="http://www.w3.org/1999/xlink" x="0px" y="0px"
	 viewBox="0 0 322 322" style="enable-background:new 0 0 322 322;" xml:space="preserve">
<style type="text/css">
	.st0{fill:#242424;}
</style>
<g id="Layer_2_00000112598626901752427150000006479059885107355794_">
	<g id="Layer_1-2">
		<path class="st0" d="M122.1,219.8c-2.8-0.6-5.4-1.7-7.7-3.4c-4-3-6.4-7.6-6.3-12.6c0-32,0-64,0-95.9c0.1-8.8,7.2-15.9,16-16
			c3.2,0,6.5,0,9.9,0V81.1h54.2v10.7h1.5c3.7,0.1,7.4-0.2,11.1,0.3c7.5,1.2,13.2,7.5,13.4,15.2c0.1,12,0,23.9,0,35.9
			c0,0.2,0,0.4-0.1,0.6h-10.7V109c0-4.1-2.1-6.2-6.2-6.2h-8.9v10.7h-54.2v-10.7c-3.6,0-7.1-0.1-10.5,0c-2.6,0.3-4.6,2.5-4.7,5.2
			c0,0.4,0,0.8,0,1.2v93.3c0,4.4,2,6.4,6.5,6.4h60.2v10.8L122.1,219.8z M177.3,102.7V92H145v10.7L177.3,102.7z"/>
		<path class="st0" d="M238.9,219.8c-4.8-4.9-9.7-9.7-14.4-14.7c-0.8-0.8-1.2-0.3-1.8,0c-12.8,7.7-29.5,3.5-37.1-9.3
			c-7.7-12.8-3.5-29.5,9.3-37.1c3.3-2,6.9-3.2,10.7-3.7c11-1.2,19.9,2.9,25.9,12.1s6,18.8,0.7,28.4c-0.6,0.7-0.5,1.7,0.2,2.3
			c0,0,0.1,0.1,0.1,0.1c4.8,4.7,9.5,9.4,14.3,14.1v0.3l-7.6,7.6H238.9z M192.6,181.9c0,9,7.3,16.2,16.3,16.2c9,0,16.2-7.3,16.2-16.3
			c0-9-7.3-16.2-16.2-16.2C199.9,165.6,192.6,172.9,192.6,181.9L192.6,181.9z"/>
		<path class="st0" d="M155.8,167.6l-18.2-18.2l7.5-7.4l10.4,10.5l21.5-21.6l7.9,7.9L155.8,167.6z"/>
		<g>
			<path class="st0" d="M161,12.5c39.7,0,77,15.4,105,43.5c28,28,43.5,65.3,43.5,105s-15.4,77-43.5,105c-28,28-65.3,43.5-105,43.5
				S84,294.1,56,266c-28-28-43.5-65.3-43.5-105S27.9,84,56,56C84,27.9,121.3,12.5,161,12.5 M161,2.5C73.5,2.5,2.5,73.5,2.5,161
				s71,158.5,158.5,158.5s158.5-71,158.5-158.5S248.5,2.5,161,2.5L161,2.5z"/>
		</g>
	</g>
</g>
</svg>
