<svg xmlns="http://www.w3.org/2000/svg" viewBox="0 0 50 50"><defs><style>.cls-1{fill:none;}.cls-2{fill:#242424;}</style></defs><g id="Layer_2" data-name="Layer 2"><g id="Layer_1-2" data-name="Layer 1"><rect class="cls-1" width="50" height="50" rx="4"/><path class="cls-2" d="M34.89,23a1.11,1.11,0,0,0-1.1,1.11l0,9.72-17.53,0,.05-17.53H28.87a1.11,1.11,0,0,0,0-2.21H16.26A2.26,2.26,0,0,0,14,16.26V33.74A2.26,2.26,0,0,0,16.26,36H33.74A2.26,2.26,0,0,0,36,33.74V24.07A1.11,1.11,0,0,0,34.89,23Z"/><path class="cls-2" d="M21.44,23a1.11,1.11,0,1,0-1.38,1.73l4.25,3.38a.84.84,0,0,0,.21.11.39.39,0,0,0,.11.06.94.94,0,0,0,.37.07h0a1.23,1.23,0,0,0,.46-.1s.08-.07.12-.09a1.08,1.08,0,0,0,.24-.18l9.9-11a1.11,1.11,0,0,0-1.65-1.48l-9.2,10.25Z"/></g></g></svg>