<svg xmlns="http://www.w3.org/2000/svg" viewBox="0 0 50 50"><defs><style>.cls-1{fill:none;}.cls-2{fill:#242424;}</style></defs><g id="Layer_2" data-name="Layer 2"><g id="Layer_1-2" data-name="Layer 1"><rect class="cls-1" width="50" height="50" rx="11.24"/><path class="cls-2" d="M25.29,37.3,20.89,33h-3a4,4,0,0,1-4-4V18.27a4,4,0,0,1,4-4H32.32a4,4,0,0,1,4,4V28.94a4,4,0,0,1-4,4H29.69ZM17.91,15.62a2.65,2.65,0,0,0-2.65,2.65V28.94a2.65,2.65,0,0,0,2.65,2.65h3.54l3.84,3.8,3.84-3.8h3.19A2.65,2.65,0,0,0,35,28.94V18.27a2.65,2.65,0,0,0-2.64-2.65Z"/><path class="cls-2" d="M24.16,22.13H18.39a1,1,0,1,1,0-2h5.77a1,1,0,1,1,0,2Z"/><path class="cls-2" d="M30.08,25H18.7a1,1,0,0,1,0-2H30.08a1,1,0,0,1,0,2Z"/><path class="cls-2" d="M30.08,27.9H18.7a1,1,0,0,1,0-2H30.08a1,1,0,0,1,0,2Z"/></g></g></svg>