<svg xmlns="http://www.w3.org/2000/svg" viewBox="0 0 50 50"><defs><style>.cls-1{fill:none;}.cls-2{fill:#242424;}</style></defs><g id="Layer_2" data-name="Layer 2"><g id="Layer_1-2" data-name="Layer 1"><rect class="cls-1" width="50" height="50" rx="4.11"/><path class="cls-2" d="M25.75,36.79l-4.68-4.63H17.55a3.93,3.93,0,0,1-3.94-3.94V16.36a3.94,3.94,0,0,1,3.94-3.94h16a4,4,0,0,1,3.94,3.94V28.22a3.94,3.94,0,0,1-3.94,3.94H30.43Zm-8.2-22.37a1.94,1.94,0,0,0-1.94,1.94V28.22a1.94,1.94,0,0,0,1.94,1.94h4.34L25.75,34l3.85-3.82h4a1.94,1.94,0,0,0,1.94-1.94V16.36a1.94,1.94,0,0,0-1.94-1.94Z"/><path class="cls-2" d="M25.32,19H18.55a1,1,0,1,1,0-2h6.77a1,1,0,0,1,0,2Z"/><path class="cls-2" d="M32.1,22.82H18.55a1,1,0,0,1,0-2H32.1a1,1,0,0,1,0,2Z"/><path class="cls-2" d="M32.1,26.89H18.55a1,1,0,1,1,0-2H32.1a1,1,0,0,1,0,2Z"/></g></g></svg>