<svg xmlns="http://www.w3.org/2000/svg" viewBox="0 0 33 35.95"><defs><style>.cls-1{fill:#242424;}</style></defs><g id="Layer_2" data-name="Layer 2"><g id="Layer_1-2" data-name="Layer 1"><path class="cls-1" d="M26.88,9.13H7.16a.94.94,0,0,1,0-1.87H26.88a.94.94,0,0,1,0,1.87Z"/><path class="cls-1" d="M26.88,15.36H7.16a.94.94,0,0,1,0-1.87H26.88a.94.94,0,0,1,0,1.87Z"/><path class="cls-1" d="M15.46,21.59H7.16a.94.94,0,0,1,0-1.87h8.3a.94.94,0,1,1,0,1.87Z"/><path class="cls-1" d="M8,36a1.49,1.49,0,0,1-.63-.13,1.91,1.91,0,0,1-1-1.93l.06-4.95a1.11,1.11,0,0,0-1.12-1.13H3a3,3,0,0,1-3-3V3A3,3,0,0,1,3,0H30a3,3,0,0,1,3,3V24.8a3,3,0,0,1-3,3H19.61a5.52,5.52,0,0,0-3,1.14L9.44,35.3A2.24,2.24,0,0,1,8,36ZM3,1.87A1.14,1.14,0,0,0,1.87,3V24.8A1.14,1.14,0,0,0,3,25.94H5.29a3,3,0,0,1,3,3l-.06,4.92,7.14-6.33a7.34,7.34,0,0,1,4.25-1.61H30a1.14,1.14,0,0,0,1.14-1.14V3A1.14,1.14,0,0,0,30,1.87Z"/></g></g></svg>