<svg xmlns="http://www.w3.org/2000/svg" viewBox="0 0 187.63 166.46"><defs><style>.cls-1{fill:#e02726;}</style></defs><g id="Layer_2" data-name="Layer 2"><g id="Layer_1-2" data-name="Layer 1"><path class="cls-1" d="M0,85.82c1.73-1.92,3.31-4,5.21-5.74Q47.32,41.29,89.5,2.6C93.31-.9,96-.86,99.83,2.69q42.54,39.79,85.09,79.59c1.79,1.68,3,3.54,2.63,6.09a6,6,0,0,1-9.87,3.53c-3-2.53-5.74-5.3-8.59-8l-2.43-2.28v77a17.23,17.23,0,0,1-.1,2.38,5.86,5.86,0,0,1-6.09,5.39q-22.35,0-44.71,0c-3.79,0-6.15-2.61-6.15-6.69q0-17.31,0-34.62v-2.31H79.44V159c0,5.29-2.16,7.45-7.44,7.45q-21.15,0-42.31,0c-4.83,0-7-2.21-7-7q0-38.19,0-76.39V80.38c-.82.73-1.3,1.14-1.76,1.57l-9.72,8.92C6.66,95,2.61,94.23,0,88.75Zm67.42,68.52V118.07c0-5.3,2.11-7.38,7.46-7.38h39.39c5.2,0,7.37,2.15,7.37,7.3q0,17.14,0,34.27v2.05h33v-1.73q0-40.31,0-80.62a4,4,0,0,0-1.18-2.62Q124.58,42.24,95.66,15.23c-.35-.32-.72-.6-1.1-.92-.33.27-.57.45-.79.66q-29,26.64-58,53.33a4.26,4.26,0,0,0-1.15,2.83q-.09,40.58,0,81.16v2.05Z"/></g></g></svg>