<svg xmlns="http://www.w3.org/2000/svg" viewBox="0 0 237.68 210.73"><defs><style>.cls-1{fill:#e02726;}</style></defs><g id="Layer_2" data-name="Layer 2"><g id="Layer_1-2" data-name="Layer 1"><path class="cls-1" d="M0,106.26c7.86-6.87,15.75-13.71,23.59-20.6l95.33-84c.63-.55,1.28-1.08,2-1.7L237.68,105.77c-2.62,4.8-8,7.1-13.74,5.84a29.45,29.45,0,0,1-13.43-7Q166.76,65.39,123,26.14c-.63-.57-1.28-1.11-2.14-1.87-1,.83-2,1.64-3,2.47q-46.71,39.53-93.44,79a43.3,43.3,0,0,1-4.63,3.47c-8,5.05-13.5,4.33-19.84-2.52Z"/><path class="cls-1" d="M97.26,210.66H94.44l-55.27.06c-5.33,0-6.78-1.43-6.78-6.72q0-44.34,0-88.7a4.51,4.51,0,0,1,1.34-3.12Q76.32,76.38,119,40.71c.35-.3.73-.57,1.22-.94l14.4,12.78q33.32,29.63,66.64,59.23a4.52,4.52,0,0,1,1.71,3.76q-.08,43.43-.05,86.84a15.23,15.23,0,0,1-.37,3.44c-.67,2.93-2.36,4.42-5.36,4.51-4.49.13-9,.09-13.46.09q-21.37,0-42.73,0h-3v-2.88q0-22.53,0-45c0-5.9-2.29-8.73-8.21-8.94-8.5-.29-17-.25-25.53-.05-4.82.12-6.82,2.67-6.84,7.77q-.09,23.22-.14,46.44C97.25,208.61,97.26,209.52,97.26,210.66Z"/><path class="cls-1" d="M209.61,72.08,194.14,59l-.71-.61c-2.3-2-5.5-3.68-6.67-6.24s-.37-6.06-.38-9.14c0-6.24,0-12.48,0-18.84h23.24Z"/></g></g></svg>