<svg xmlns="http://www.w3.org/2000/svg" viewBox="0 0 50 50"><defs><style>.cls-1{fill:none;}.cls-2{fill:#242424;}</style></defs><g id="Layer_2" data-name="Layer 2"><g id="Layer_1-2" data-name="Layer 1"><rect class="cls-1" width="50" height="50" rx="4"/><path class="cls-2" d="M25,36.41A11.77,11.77,0,1,1,36.77,24.64,11.78,11.78,0,0,1,25,36.41Zm0-21.54a9.77,9.77,0,1,0,9.77,9.77A9.78,9.78,0,0,0,25,14.87Z"/><path class="cls-2" d="M25,31.49a1,1,0,0,1-1-1v-7a1,1,0,0,1,2,0v7A1,1,0,0,1,25,31.49Z"/><circle class="cls-2" cx="25" cy="19.71" r="1.08"/></g></g></svg>