<svg xmlns="http://www.w3.org/2000/svg" viewBox="0 0 62.3 62.3"><defs><style>.cls-1{fill:#242424;}</style></defs><g id="Layer_2" data-name="Layer 2"><g id="Layer_1-2" data-name="Layer 1"><g id="Circle"><path class="cls-1" d="M31.15,62.3A31.15,31.15,0,1,1,62.3,31.15,31.18,31.18,0,0,1,31.15,62.3Zm0-60A28.85,28.85,0,1,0,60,31.15,28.88,28.88,0,0,0,31.15,2.3Z"/></g><path class="cls-1" d="M31.15,49.91a2.5,2.5,0,0,1-2.5-2.5v-20a2.5,2.5,0,0,1,5,0v20A2.5,2.5,0,0,1,31.15,49.91Z"/><circle class="cls-1" cx="31.15" cy="17.16" r="2.75"/></g></g></svg>