<svg xmlns="http://www.w3.org/2000/svg" viewBox="0 0 50 50"><defs><style>.cls-1{fill:none;}.cls-2{fill:#242424;}</style></defs><g id="Layer_2" data-name="Layer 2"><g id="Layer_1-2" data-name="Layer 1"><rect class="cls-1" width="50" height="50" rx="4.11"/><path class="cls-2" d="M25.75,36.79l-4.68-4.63H17.55a3.93,3.93,0,0,1-3.94-3.94V16.36a3.94,3.94,0,0,1,3.94-3.94h16a4,4,0,0,1,3.94,3.94V28.22a3.94,3.94,0,0,1-3.94,3.94H30.43Zm-8.2-22.37a1.94,1.94,0,0,0-1.94,1.94V28.22a1.94,1.94,0,0,0,1.94,1.94h4.34L25.75,34l3.85-3.82h4a1.94,1.94,0,0,0,1.94-1.94V16.36a1.94,1.94,0,0,0-1.94-1.94Z"/><path d="M27.17,26.91H26V23h-4.3v3.95H20.62V18.37h1.12V22H26V18.37h1.13Z"/><path d="M29,18.88a.63.63,0,0,1,.16-.44.73.73,0,0,1,1,0,.63.63,0,0,1,.16.44.6.6,0,0,1-.16.44.73.73,0,0,1-1,0A.6.6,0,0,1,29,18.88Zm1.17,8H29.1V20.57h1.08Z"/></g></g></svg>