<svg xmlns="http://www.w3.org/2000/svg" viewBox="0 0 165.84 214.4"><defs><style>.cls-1{fill:#242424;}</style></defs><g id="Layer_2" data-name="Layer 2"><g id="Layer_1-2" data-name="Layer 1"><path class="cls-1" d="M152,179.82v2.59q0,13.83,0,27.65c0,3.11-1.22,4.33-4.31,4.33q-64.81,0-129.63,0c-3.11,0-4.33-1.21-4.33-4.3q0-13.82,0-27.65v-2.62c-3.13,0-6.13,0-9.13,0-4.23,0-5.68-2.23-3.84-6,3.94-8,8-15.94,11.84-24,1.6-3.35,3.64-4.75,7.63-4.74q63.51.27,127,.06c2.35,0,3.76.73,4.78,2.78,4.41,8.89,8.92,17.73,13.3,26.63,1.34,2.73-.24,5.13-3.3,5.19C158.83,179.88,155.59,179.82,152,179.82ZM20.75,207.33h89.71v-43a59.85,59.85,0,0,0-5.5,10.39c-1.5,4.08-4.12,5.15-8.2,5.13-24.47-.12-48.94-.05-73.41-.05h-2.6ZM9,172.81c.68.05,1,.1,1.38.1q43,0,86,0a2.35,2.35,0,0,0,2.45-1.56c2.84-5.82,5.77-11.59,8.65-17.39.26-.53.45-1.1.74-1.82H58.7c-12.46,0-24.92,0-37.38,0-.8,0-2,.32-2.33.87C15.64,159.51,12.43,166,9,172.81Zm108.58-9.05v43.56H145v-27.5c-5.36,0-10.54-.13-15.71.06a4.84,4.84,0,0,1-5.07-3.07C122.13,172.61,120,168.46,117.61,163.76Zm39.05,9.15c-.18-.52-.24-.79-.36-1-3.09-6.17-6.14-12.36-9.33-18.48a3.13,3.13,0,0,0-2.35-1.17c-7.71-.09-15.41-.06-23.12-.05-.53,0-1.06.07-1.82.13,3.37,6.74,6.58,13.24,9.92,19.68a2.76,2.76,0,0,0,2.1.89c5.4.07,10.8,0,16.2,0Z"/><path class="cls-1" d="M106.14,108.17c-.76,3.07-1.4,5.87-2.15,8.64-1,3.86-1.53,4.2-5.52,4.24-.5,0-1,0-1.75,0,0,2.13,0,4.12,0,6.11,0,2.68-1.37,4.29-3.52,4.25s-3.35-1.59-3.39-4.16c0-1.94,0-3.88-.07-5.83,0,0-.09-.11-.22-.26H86.35v3.56c0,4.39,0,8.78,0,13.17,0,2.37-1.41,3.88-3.44,3.89s-3.41-1.51-3.45-3.87c0-2.8,0-5.61,0-8.42v-8.31H76c0,2.13,0,4.2,0,6.27,0,2.39-1.35,3.9-3.37,4s-3.48-1.52-3.53-4c0-1,0-2,0-3v-3.22c-.78,0-1.47-.08-2.16-.09-3.42,0-4-.45-5-3.82-.71-2.56-1.29-5.16-1.94-7.73-.1-.4-.28-.79-.47-1.33L39,114.31c-3.24,1-6.47,2-9.72,2.87-3.41,1-5.3-.46-5.15-4.06.7-17.11,8.05-30.63,22.15-40.38A4.13,4.13,0,0,0,48.39,69c.47-22.76,7.12-43.17,23.19-59.87,2.63-2.75,5.59-5.19,8.47-7.68,2.2-1.9,3.4-1.86,5.73,0,15.68,12.42,25.69,28.4,29.46,48.05,1.24,6.47,1.58,13.12,2.14,19.7a4,4,0,0,0,1.9,3.46c14.21,9.73,21.62,23.29,22.35,40.49.16,3.69-1.76,5.11-5.33,4-9.24-2.73-18.46-5.51-27.69-8.27C107.87,108.65,107.12,108.45,106.14,108.17Zm-37-84.73a10.1,10.1,0,0,0-.69.83c-6.72,9.78-11.37,20.51-12.2,32.35-.88,12.33-.77,24.73-.94,37.11a6.66,6.66,0,0,0,6.94,6.56q20.63.06,41.27,0a6.75,6.75,0,0,0,7-6.93c0-10.73,0-21.47-.44-32.18A69,69,0,0,0,97.53,24.51a10.34,10.34,0,0,0-.92-1C87.38,29.08,78.28,29.05,69.12,23.44Zm48.51,56.21c-.74,8.16,2,16.5-4,23.48l20.89,6.26C132.91,97.07,127.38,87.4,117.63,79.65Zm-69.35-.11c-9.82,7.82-15.36,17.43-17,29.75l21-6.27a15.35,15.35,0,0,1-4-11.09C48.29,88,48.28,84,48.28,79.54Zm20,34.52H97.5l1.65-6.74H66.64ZM93,17.42,82.71,7.82l-9.52,9.81C79.18,21.65,86.54,21.66,93,17.42Z"/><path class="cls-1" d="M38.1,193.65c-2.23,0-4.46,0-6.69,0s-3.85-1.47-3.81-3.51a3.43,3.43,0,0,1,3.71-3.37q6.6-.07,13.18,0c2.34,0,3.85,1.47,3.81,3.5s-1.53,3.35-3.93,3.39C42.28,193.68,40.19,193.65,38.1,193.65Z"/><path class="cls-1" d="M38,197.11c2.16,0,4.32,0,6.48,0,2.34,0,3.85,1.48,3.8,3.51A3.45,3.45,0,0,1,44.58,204c-4.4.05-8.79,0-13.18,0-2.34,0-3.85-1.48-3.8-3.52s1.49-3.31,3.72-3.37S35.79,197.11,38,197.11Z"/><path class="cls-1" d="M100.17,69.33A17.28,17.28,0,1,1,83,51.91,17.31,17.31,0,0,1,100.17,69.33Zm-6.92-.2A10.36,10.36,0,1,0,83.06,79.55,10.41,10.41,0,0,0,93.25,69.13Z"/></g></g></svg>