<?xml version="1.0" encoding="utf-8"?>
<!-- Generator: Adobe Illustrator 25.4.1, SVG Export Plug-In . SVG Version: 6.00 Build 0)  -->
<svg version="1.1" id="Layer_1" xmlns="http://www.w3.org/2000/svg" xmlns:xlink="http://www.w3.org/1999/xlink" x="0px" y="0px"
	 viewBox="0 0 322 322" style="enable-background:new 0 0 322 322;" xml:space="preserve">
<style type="text/css">
	.st0{fill:#242424;}
</style>
<g id="Layer_2_00000145038414853902007240000003479841535691582873_">
	<g id="Layer_1-2">
		<path class="st0" d="M228.1,222.3v2.6c0,9.2,0,18.4,0,27.6c0,3.1-1.2,4.3-4.3,4.3H94.1c-3.1,0-4.3-1.2-4.3-4.3
			c0-9.2,0-18.4,0-27.6v-2.6c-3.1,0-6.1,0-9.1,0c-4.2,0-5.7-2.2-3.8-6c3.9-8,8-15.9,11.8-24c1.6-3.4,3.6-4.8,7.6-4.7
			c42.3,0.2,84.7,0.2,127,0.1c2.4,0,3.8,0.7,4.8,2.8c4.4,8.9,8.9,17.7,13.3,26.6c1.3,2.7-0.2,5.1-3.3,5.2
			C234.9,222.4,231.6,222.3,228.1,222.3z M96.8,249.8h89.7v-43c-2.2,3.3-4,6.8-5.5,10.4c-1.5,4.1-4.1,5.1-8.2,5.1
			c-24.5-0.1-48.9-0.1-73.4-0.1h-2.6V249.8z M85.1,215.3c0.7,0.1,1,0.1,1.4,0.1c28.7,0,57.3,0,86,0c1.1,0.1,2.1-0.5,2.4-1.6
			c2.9-5.8,5.8-11.6,8.6-17.4c0.3-0.5,0.4-1.1,0.7-1.8h-49.5c-12.5,0-24.9,0-37.4,0c-0.8,0-2,0.3-2.3,0.9
			C91.7,202,88.5,208.5,85.1,215.3z M193.7,206.3v43.6H221v-27.5c-5.4,0-10.5-0.1-15.7,0.1c-2.2,0.3-4.3-1-5.1-3.1
			C198.2,215.1,196,211,193.7,206.3z M232.7,215.4c-0.1-0.3-0.2-0.7-0.4-1c-3.1-6.2-6.1-12.4-9.3-18.5c-0.6-0.7-1.4-1.1-2.4-1.2
			c-7.7-0.1-15.4-0.1-23.1-0.1c-0.5,0-1.1,0.1-1.8,0.1c3.4,6.7,6.6,13.2,9.9,19.7c0.5,0.6,1.3,0.9,2.1,0.9c5.4,0.1,10.8,0,16.2,0
			H232.7z"/>
		<path class="st0" d="M182.2,150.7c-0.8,3.1-1.4,5.9-2.1,8.6c-1,3.9-1.5,4.2-5.5,4.2h-1.7c0,2.1,0,4.1,0,6.1c0,2.7-1.4,4.3-3.5,4.2
			s-3.4-1.6-3.4-4.2c0-1.9-0.1-3.9-0.1-5.8c0,0-0.1-0.1-0.2-0.3h-3.2v3.6c0,4.4,0,8.8,0,13.2c0,2.4-1.4,3.9-3.4,3.9
			s-3.4-1.5-3.5-3.9c0-2.8,0-5.6,0-8.4v-8.3H152c0,2.1,0,4.2,0,6.3c0,2.4-1.4,3.9-3.4,4s-3.5-1.5-3.5-4c0-1,0-2,0-3v-3.2
			c-0.8,0-1.5-0.1-2.1-0.1c-3.4,0-4-0.4-5-3.8c-0.7-2.6-1.3-5.2-1.9-7.7c-0.1-0.5-0.3-0.9-0.5-1.3l-20.5,6.1c-3.2,1-6.5,1.9-9.7,2.9
			c-3.4,1-5.3-0.5-5.2-4.1c0.7-17.1,8-30.6,22.2-40.4c1.3-0.8,2.2-2.2,2.1-3.8c0.5-22.8,7.1-43.2,23.2-59.9c2.6-2.8,5.6-5.2,8.5-7.7
			c2.2-1.9,3.4-1.9,5.7,0c15.7,12.4,25.7,28.4,29.5,48c1.2,6.5,1.6,13.1,2.1,19.7c0,1.4,0.7,2.7,1.9,3.5
			c14.2,9.7,21.6,23.3,22.4,40.5c0.2,3.7-1.8,5.1-5.3,4c-9.2-2.7-18.5-5.5-27.7-8.3L182.2,150.7z M145.2,65.9
			c-0.2,0.3-0.5,0.5-0.7,0.8c-6.7,9.8-11.4,20.5-12.2,32.3c-0.9,12.3-0.8,24.7-0.9,37.1c0,3.7,3.1,6.6,6.7,6.6c0.1,0,0.1,0,0.2,0
			c13.8,0,27.5,0,41.3,0c3.7,0.1,6.9-2.8,7-6.5c0-0.1,0-0.3,0-0.4c-0.1-10.7,0-21.5-0.4-32.2c-0.6-13.2-4.9-25.9-12.5-36.7
			c-0.3-0.4-0.6-0.7-0.9-1C163.4,71.6,154.3,71.6,145.2,65.9L145.2,65.9z M193.7,122.1c-0.7,8.2,2,16.5-4,23.5l20.9,6.3
			C209,139.6,203.4,129.9,193.7,122.1L193.7,122.1z M124.3,122c-9.8,7.8-15.4,17.4-17,29.8l21-6.3c-2.8-3-4.2-7-4-11.1V122z
			 M144.3,156.5h29.2l1.6-6.7h-32.5L144.3,156.5z M169,59.9l-10.3-9.6l-9.5,9.8C155.2,64.2,162.6,64.2,169,59.9z"/>
		<path class="st0" d="M114.2,236.1c-2.2,0-4.5,0-6.7,0s-3.8-1.5-3.8-3.5c0-1.9,1.6-3.4,3.5-3.4c0.1,0,0.2,0,0.2,0
			c4.4,0,8.8,0,13.2,0c2.3,0,3.8,1.5,3.8,3.5s-1.5,3.4-3.9,3.4C118.3,236.2,116.2,236.1,114.2,236.1z"/>
		<path class="st0" d="M114.1,239.6c2.2,0,4.3,0,6.5,0c2.3,0,3.8,1.5,3.8,3.5c0,1.9-1.6,3.4-3.5,3.4c-0.1,0-0.1,0-0.2,0
			c-4.4,0.1-8.8,0-13.2,0c-2.3,0-3.8-1.5-3.8-3.5s1.5-3.3,3.7-3.4S111.8,239.6,114.1,239.6z"/>
		<path class="st0" d="M176.2,111.8c-0.1,9.5-7.9,17.2-17.4,17.1s-17.2-7.9-17.1-17.4c0.1-9.5,7.8-17.2,17.3-17.1
			C168.6,94.5,176.3,102.3,176.2,111.8C176.2,111.8,176.2,111.8,176.2,111.8z M169.3,111.6c0-5.7-4.7-10.3-10.4-10.3
			c-5.7,0-10.3,4.7-10.3,10.4c0,5.7,4.7,10.3,10.4,10.3c0,0,0.1,0,0.1,0C164.8,121.9,169.3,117.3,169.3,111.6L169.3,111.6z"/>
		<g>
			<path class="st0" d="M161,12.5c39.7,0,77,15.4,105,43.5c28,28,43.5,65.3,43.5,105s-15.4,77-43.5,105c-28,28-65.3,43.5-105,43.5
				S84,294.1,56,266c-28-28-43.5-65.3-43.5-105S27.9,84,56,56C84,27.9,121.3,12.5,161,12.5 M161,2.5C73.5,2.5,2.5,73.5,2.5,161
				s71,158.5,158.5,158.5s158.5-71,158.5-158.5S248.5,2.5,161,2.5L161,2.5z"/>
		</g>
	</g>
</g>
</svg>
