<svg xmlns="http://www.w3.org/2000/svg" viewBox="0 0 322 322"><defs><style>.cls-1{fill:#242424;}.cls-2{fill:none;stroke:#242424;stroke-miterlimit:10;stroke-width:5px;}</style></defs><g id="Layer_2" data-name="Layer 2"><g id="Layer_1-2" data-name="Layer 1"><path class="cls-1" d="M228.08,222.32v2.59q0,13.83,0,27.65c0,3.11-1.22,4.33-4.31,4.33H94.14c-3.12,0-4.33-1.21-4.34-4.3q0-13.82,0-27.65v-2.62c-3.13,0-6.13,0-9.12,0-4.23,0-5.68-2.23-3.84-6,3.94-8,8-15.94,11.84-24,1.59-3.35,3.63-4.75,7.62-4.74q63.51.27,127,.06c2.36,0,3.77.73,4.78,2.78,4.41,8.89,8.92,17.73,13.3,26.63,1.34,2.73-.24,5.13-3.29,5.19C234.87,222.38,231.64,222.32,228.08,222.32ZM96.8,249.83h89.7v-43A59.8,59.8,0,0,0,181,217.24c-1.5,4.08-4.13,5.15-8.2,5.13-24.47-.12-48.94-.05-73.41-.05H96.8ZM85.07,215.31c.69.05,1,.1,1.39.1q43,0,86,0a2.34,2.34,0,0,0,2.44-1.56c2.85-5.82,5.77-11.59,8.65-17.39.27-.53.45-1.1.74-1.82H134.74c-12.46,0-24.92,0-37.38,0-.8,0-2,.32-2.33.87C91.68,202,88.47,208.52,85.07,215.31Zm108.59-9.05v43.56H221v-27.5c-5.35,0-10.54-.13-15.71.06a4.84,4.84,0,0,1-5.07-3.07C198.17,215.11,196,211,193.66,206.26Zm39,9.15a9.5,9.5,0,0,0-.36-1c-3.08-6.17-6.13-12.36-9.33-18.48a3.09,3.09,0,0,0-2.35-1.17c-7.7-.09-15.41-.06-23.11-.05-.53,0-1.06.07-1.83.13,3.38,6.74,6.59,13.24,9.92,19.68a2.78,2.78,0,0,0,2.1.89c5.4.07,10.8,0,16.21,0Z"/><path class="cls-1" d="M182.18,150.67c-.76,3.07-1.4,5.87-2.14,8.64-1,3.86-1.54,4.2-5.53,4.24h-1.74c0,2.13,0,4.12,0,6.11,0,2.68-1.36,4.29-3.51,4.25s-3.36-1.59-3.39-4.16c0-1.94-.05-3.88-.07-5.83,0,0-.09-.11-.23-.26H162.4v3.56c0,4.39,0,8.78,0,13.17,0,2.37-1.41,3.88-3.43,3.89s-3.42-1.51-3.46-3.87c0-2.8,0-5.61,0-8.42v-8.31H152c0,2.13,0,4.2,0,6.27,0,2.39-1.36,3.9-3.37,4s-3.48-1.52-3.54-4c0-1,0-2,0-3v-3.22c-.78,0-1.47-.08-2.15-.09-3.43,0-4-.45-5-3.82-.72-2.56-1.29-5.16-1.95-7.73a13.82,13.82,0,0,0-.47-1.33l-20.49,6.13c-3.23,1-6.47,1.95-9.71,2.87-3.42,1-5.31-.46-5.16-4.06.71-17.11,8-30.63,22.15-40.38a4.13,4.13,0,0,0,2.08-3.78c.47-22.76,7.13-43.17,23.19-59.87,2.64-2.75,5.59-5.19,8.48-7.68,2.19-1.9,3.4-1.86,5.72,0,15.68,12.42,25.69,28.4,29.47,48.05,1.24,6.47,1.57,13.12,2.13,19.7a4,4,0,0,0,1.9,3.46c14.22,9.73,21.62,23.29,22.35,40.49.16,3.69-1.75,5.11-5.33,4-9.23-2.73-18.46-5.51-27.68-8.27Zm-37-84.73a10.28,10.28,0,0,0-.7.83c-6.71,9.78-11.36,20.51-12.2,32.35-.87,12.33-.77,24.73-.93,37.11a6.65,6.65,0,0,0,6.93,6.56q20.64.06,41.27,0a6.75,6.75,0,0,0,7-6.93c-.06-10.73,0-21.47-.44-32.18A69,69,0,0,0,173.57,67a10.34,10.34,0,0,0-.92-1C163.42,71.58,154.32,71.55,145.17,65.94Zm48.5,56.21c-.74,8.16,2,16.5-4,23.48l20.89,6.26C209,139.57,203.43,129.9,193.67,122.15ZM124.33,122c-9.83,7.82-15.37,17.43-17,29.75l21-6.27a15.35,15.35,0,0,1-4-11.09Zm20,34.52h29.21l1.65-6.74H142.68ZM169,59.92l-10.26-9.6-9.52,9.81C155.23,64.15,162.58,64.16,169,59.92Z"/><path class="cls-1" d="M114.15,236.15c-2.23,0-4.47,0-6.7,0s-3.85-1.47-3.81-3.51a3.43,3.43,0,0,1,3.72-3.37q6.58-.07,13.18,0c2.34,0,3.85,1.47,3.81,3.5s-1.54,3.35-3.94,3.39C118.32,236.18,116.24,236.15,114.15,236.15Z"/><path class="cls-1" d="M114.06,239.61c2.16,0,4.32,0,6.48,0,2.34,0,3.85,1.48,3.81,3.51a3.46,3.46,0,0,1-3.73,3.38c-4.39.05-8.78,0-13.18,0-2.34,0-3.84-1.48-3.8-3.52s1.5-3.31,3.73-3.37S111.83,239.61,114.06,239.61Z"/><path class="cls-1" d="M176.22,111.83A17.28,17.28,0,1,1,159,94.41,17.32,17.32,0,0,1,176.22,111.83Zm-6.93-.2a10.36,10.36,0,1,0-10.19,10.42A10.4,10.4,0,0,0,169.29,111.63Z"/><circle class="cls-2" cx="161" cy="161" r="158.5"/></g></g></svg>