<svg xmlns="http://www.w3.org/2000/svg" viewBox="0 0 319 319"><defs><style>.cls-1{fill:#242424;}.cls-2{fill:none;stroke:#242424;stroke-miterlimit:10;stroke-width:2px;}</style></defs><g id="Layer_2" data-name="Layer 2"><g id="Layer_1-2" data-name="Layer 1"><path class="cls-1" d="M226.58,220.82v2.59q0,13.83,0,27.65c0,3.11-1.22,4.33-4.31,4.33q-64.82,0-129.63,0c-3.12,0-4.33-1.21-4.34-4.3q0-13.82,0-27.65v-2.62c-3.13,0-6.13,0-9.12,0-4.23,0-5.68-2.23-3.84-6,3.94-8,8-15.94,11.84-24,1.59-3.35,3.63-4.75,7.62-4.74q63.51.27,127,.06c2.36,0,3.77.73,4.78,2.78,4.41,8.89,8.92,17.73,13.3,26.63,1.34,2.73-.24,5.13-3.29,5.19C233.37,220.88,230.14,220.82,226.58,220.82ZM95.3,248.33H185v-43a59.8,59.8,0,0,0-5.49,10.39c-1.5,4.08-4.13,5.15-8.2,5.13-24.47-.12-48.94-.05-73.41-.05H95.3ZM83.57,213.81c.69.05,1,.1,1.39.1q43,0,86,0a2.34,2.34,0,0,0,2.44-1.56c2.85-5.82,5.77-11.59,8.65-17.39.27-.53.45-1.1.74-1.82H133.24c-12.46,0-24.92,0-37.38,0-.8,0-2,.32-2.33.87C90.18,200.51,87,207,83.57,213.81Zm108.59-9.05v43.56h27.33v-27.5c-5.35,0-10.54-.13-15.71.06a4.84,4.84,0,0,1-5.07-3.07C196.67,213.61,194.53,209.46,192.16,204.76Zm39,9.15a9.5,9.5,0,0,0-.36-1c-3.08-6.17-6.13-12.36-9.33-18.48a3.09,3.09,0,0,0-2.35-1.17c-7.7-.09-15.41-.06-23.11-.05-.53,0-1.06.07-1.83.13,3.38,6.74,6.59,13.24,9.92,19.68a2.78,2.78,0,0,0,2.1.89c5.4.07,10.8,0,16.21,0Z"/><path class="cls-1" d="M180.68,149.17c-.76,3.07-1.4,5.87-2.14,8.64-1,3.86-1.54,4.2-5.53,4.24h-1.74c0,2.13,0,4.12,0,6.11,0,2.68-1.36,4.29-3.51,4.25s-3.36-1.59-3.39-4.16c0-1.94-.05-3.88-.07-5.83,0,0-.09-.11-.23-.26H160.9v3.56c0,4.39,0,8.78,0,13.17,0,2.37-1.41,3.88-3.43,3.89s-3.42-1.51-3.46-3.87c0-2.8,0-5.61,0-8.42v-8.31h-3.46c0,2.13,0,4.2,0,6.27,0,2.39-1.36,3.9-3.37,4s-3.48-1.52-3.54-4c0-1,0-2,0-3v-3.22c-.78,0-1.47-.08-2.15-.09-3.43,0-4-.45-5-3.82-.72-2.56-1.29-5.16-1.95-7.73a13.82,13.82,0,0,0-.47-1.33l-20.49,6.13c-3.23,1-6.47,1.95-9.71,2.87-3.42,1-5.31-.46-5.16-4.06.71-17.11,8-30.63,22.15-40.38a4.13,4.13,0,0,0,2.08-3.78c.47-22.76,7.13-43.17,23.19-59.87,2.64-2.75,5.59-5.19,8.48-7.68,2.19-1.9,3.4-1.86,5.72,0C176,54.81,186,70.79,189.79,90.44c1.24,6.47,1.57,13.12,2.13,19.7a4,4,0,0,0,1.9,3.46c14.22,9.73,21.62,23.29,22.35,40.49.16,3.69-1.75,5.11-5.33,4-9.23-2.73-18.46-5.51-27.68-8.27Zm-37-84.73a10.28,10.28,0,0,0-.7.83c-6.71,9.78-11.36,20.51-12.2,32.35-.87,12.33-.77,24.73-.93,37.11a6.65,6.65,0,0,0,6.93,6.56q20.64.06,41.27,0a6.75,6.75,0,0,0,7-6.93c-.06-10.73,0-21.47-.44-32.18a69,69,0,0,0-12.56-36.67,10.34,10.34,0,0,0-.92-1C161.92,70.08,152.82,70.05,143.67,64.44Zm48.5,56.21c-.74,8.16,2,16.5-4,23.48L209,150.39C207.45,138.07,201.93,128.4,192.17,120.65Zm-69.34-.11c-9.83,7.82-15.37,17.43-17,29.75l21-6.27a15.35,15.35,0,0,1-4-11.09Zm20,34.52H172l1.65-6.74H141.18Zm24.68-96.64-10.26-9.6-9.52,9.81C153.73,62.65,161.08,62.66,167.51,58.42Z"/><path class="cls-1" d="M112.65,234.65c-2.23,0-4.47,0-6.7,0s-3.85-1.47-3.81-3.51a3.43,3.43,0,0,1,3.72-3.37q6.58-.07,13.18,0c2.34,0,3.85,1.47,3.81,3.5s-1.54,3.35-3.94,3.39C116.82,234.68,114.74,234.65,112.65,234.65Z"/><path class="cls-1" d="M112.56,238.11c2.16,0,4.32,0,6.48,0,2.34,0,3.85,1.48,3.81,3.51a3.46,3.46,0,0,1-3.73,3.38c-4.39.05-8.78,0-13.18,0-2.34,0-3.84-1.48-3.8-3.52s1.5-3.31,3.73-3.37S110.33,238.11,112.56,238.11Z"/><path class="cls-1" d="M174.72,110.33a17.28,17.28,0,1,1-17.2-17.42A17.32,17.32,0,0,1,174.72,110.33Zm-6.93-.2a10.36,10.36,0,1,0-10.19,10.42A10.4,10.4,0,0,0,167.79,110.13Z"/><circle class="cls-2" cx="159.5" cy="159.5" r="158.5"/></g></g></svg>