<svg xmlns="http://www.w3.org/2000/svg" viewBox="0 0 50 50"><defs><style>.cls-1{fill:none;}.cls-2{fill:#242424;}</style></defs><g id="Layer_2" data-name="Layer 2"><g id="Layer_1-2" data-name="Layer 1"><rect class="cls-1" width="50" height="50" rx="4"/><path class="cls-2" d="M38.69,12.52h-17c-2.76,0-5,1.92-5,4.29v3.28h2V16.81c0-1.24,1.37-2.29,3-2.29h17a3,3,0,0,1,3,3v8.23a3,3,0,0,1-3,3h-17a7.7,7.7,0,0,1-3-.47V27.4h-2v1.18c0,2.06,4.16,2.17,5,2.17h17a5,5,0,0,0,5-5V17.52A5,5,0,0,0,38.69,12.52Z"/><path class="cls-2" d="M21,24.36a.66.66,0,0,0,.17-.12,1.51,1.51,0,0,0,.53-1.14,1.41,1.41,0,0,0-.19-.7l3.2-2.21-1.13-1.65-3.77,2.6a2.07,2.07,0,0,0-1.89.05c-.4.21-.93.51-1.33.74l-1.21-1a2.82,2.82,0,0,0-1.18-.6,3.65,3.65,0,1,0-6.26-.06,3.85,3.85,0,0,0-3.58,3.84v6.49a1.27,1.27,0,0,0,1.27,1.27H6.9v7.86a1.76,1.76,0,0,0,1.76,1.77h4.7a1.77,1.77,0,0,0,1.77-1.77V25.91l.49.41a1.24,1.24,0,0,0,1.43.15ZM11,16.79a1.65,1.65,0,1,1-1.65,1.65A1.65,1.65,0,0,1,11,16.79Zm2.82,6.38a1.28,1.28,0,0,0-.73,1.15V39.48H12V32a1,1,0,0,0-2,0v7.49H8.9V23.88a1,1,0,0,0-1-1H7.55a1,1,0,0,0-1,1v6H6.31V24.09a1.87,1.87,0,0,1,1.86-1.87h5.3a.87.87,0,0,1,.57.21l.85.72A1.32,1.32,0,0,0,13.86,23.17ZM16,24a1.27,1.27,0,0,0,1.12-.07c.34-.2,1.17-.67,1.74-1a.08.08,0,0,1,.1,0l.2.12-2.59,1.41Z"/></g></g></svg>