<svg xmlns="http://www.w3.org/2000/svg" viewBox="0 0 50 50"><defs><style>.cls-1{fill:none;}.cls-2{fill:#242424;}</style></defs><g id="Layer_2" data-name="Layer 2"><g id="Layer_1-2" data-name="Layer 1"><rect class="cls-1" width="50" height="50" rx="4.1"/><path class="cls-2" d="M19.9,30.53a.5.5,0,0,1-.47-.68l2.66-7.16a.51.51,0,0,1,.45-.33.49.49,0,0,1,.47.28l1.41,2.85,2.87,1.42a.52.52,0,0,1,.27.48.5.5,0,0,1-.32.44L20.07,30.5Zm2.73-6.41-1.89,5.06,5.07-1.88-2-1a.54.54,0,0,1-.22-.23Z"/><polygon class="cls-2" points="30.11 19.82 22.94 22.48 25.95 23.99 27.44 26.98 30.11 19.82"/><path class="cls-2" d="M27.44,27.49a.51.51,0,0,1-.45-.28l-1.41-2.85-2.86-1.43a.5.5,0,0,1-.28-.47.5.5,0,0,1,.32-.44l7.17-2.67a.52.52,0,0,1,.53.11.5.5,0,0,1,.11.53l-2.66,7.17a.5.5,0,0,1-.45.32Zm-3.25-4.94,2,1a.54.54,0,0,1,.22.23l1,2,1.89-5.06Z"/><path class="cls-2" d="M25,36.77A11.77,11.77,0,1,1,36.77,25,11.78,11.78,0,0,1,25,36.77Zm0-21.54A9.77,9.77,0,1,0,34.77,25,9.78,9.78,0,0,0,25,15.23Z"/></g></g></svg>