<svg xmlns="http://www.w3.org/2000/svg" viewBox="0 0 50 50"><defs><style>.cls-1,.cls-2{fill:none;}.cls-2{stroke:#000;stroke-linecap:round;stroke-miterlimit:10;stroke-width:2px;}</style></defs><g id="Layer_2" data-name="Layer 2"><g id="Layer_1-2" data-name="Layer 1"><rect class="cls-1" width="50" height="50" rx="4"/><path d="M24.65,29.8a1,1,0,0,1-1-1V13.7a1,1,0,1,1,2,0V28.8A1,1,0,0,1,24.65,29.8Z"/><path d="M30.5,20.46a.6.6,0,0,0-.84.19l-5,7.87-5-7.87a.6.6,0,0,0-.84-.19.62.62,0,0,0-.19.84L24.13,30a.6.6,0,0,0,.52.28.59.59,0,0,0,.51-.28l5.53-8.68a.64.64,0,0,0,.1-.33A.6.6,0,0,0,30.5,20.46Z"/><polyline class="cls-2" points="35.33 23.53 35.33 34.72 13.96 34.72 13.96 23.53"/></g></g></svg>