<svg xmlns="http://www.w3.org/2000/svg" viewBox="0 0 50 50"><defs><style>.cls-1{fill:none;}.cls-2{fill:#242424;}</style></defs><g id="Layer_2" data-name="Layer 2"><g id="Layer_1-2" data-name="Layer 1"><rect class="cls-1" width="50" height="50" rx="11.24"/><path class="cls-2" d="M24.66,22.16a5.68,5.68,0,1,1,5.67-5.67A5.68,5.68,0,0,1,24.66,22.16Zm0-9.35a3.68,3.68,0,1,0,3.67,3.68A3.67,3.67,0,0,0,24.66,12.81Z"/><path class="cls-2" d="M25.4,38.47l-1-1.72c2.57-1.54,7.43-4,10.89-4.56-.38-1.51-.64-2.75-.9-3.95s-.54-2.58-1-4.21c-3.16.25-5.54.8-7.93,2.5L24.3,24.9c3-2.12,5.85-2.67,9.78-2.92l.82-.05.21.79c.56,2.06.88,3.61,1.2,5.11s.63,3,1.17,5l.35,1.28-1.33,0C33.7,34.05,28.35,36.69,25.4,38.47Z"/><path class="cls-2" d="M24.36,38.47c-3-1.83-8.49-4.38-11.24-4.38h0l-1.32,0,.34-1.28c.54-2,.86-3.53,1.17-5s.65-3,1.2-5.11l.22-.79.81.05c4,.25,7,.82,10,2.92L24.3,26.53c-2.39-1.69-4.83-2.24-8.12-2.5-.42,1.63-.69,2.94-1,4.21s-.51,2.44-.89,3.95c3.76.56,9.12,3.39,11.07,4.56Z"/><path class="cls-2" d="M29.64,23.87c0-.82-1.51-1.71-3.46-1.71h-3c-1.95,0-3.46.89-3.46,1.66l-2,.05v-.05c0-2.05,2.4-3.66,5.46-3.66h3c3.06,0,5.46,1.61,5.46,3.66Z"/><path class="cls-2" d="M12.29,31.55a2.72,2.72,0,0,1-.63-.08h0a2.46,2.46,0,0,1-1.5-1.14,2.43,2.43,0,0,1-.25-1.86l.58-2.2a2.46,2.46,0,1,1,4.75,1.25l-.58,2.2a2.44,2.44,0,0,1-1.14,1.49A2.35,2.35,0,0,1,12.29,31.55Zm-.12-2a.49.49,0,0,0,.34,0,.44.44,0,0,0,.22-.28l.58-2.2a.46.46,0,0,0-.05-.35.47.47,0,0,0-.28-.21.48.48,0,0,0-.34.05.47.47,0,0,0-.21.28L11.85,29a.44.44,0,0,0,0,.34.47.47,0,0,0,.28.21Z"/><path class="cls-2" d="M37.72,31.55a2.46,2.46,0,0,1-2.38-1.83l-.58-2.2a2.46,2.46,0,0,1,3.61-2.75,2.47,2.47,0,0,1,1.14,1.5l.58,2.2a2.47,2.47,0,0,1-1.75,3h0A2.7,2.7,0,0,1,37.72,31.55Zm-.59-5.11H37a.47.47,0,0,0-.28.21.46.46,0,0,0-.05.35l.58,2.2a.46.46,0,0,0,.89-.23l-.59-2.2a.47.47,0,0,0-.21-.28A.42.42,0,0,0,37.13,26.44Z"/><rect class="cls-2" x="23.88" y="25.71" width="2" height="12.47"/></g></g></svg>