<svg xmlns="http://www.w3.org/2000/svg" viewBox="0 0 62.3 62.3"><defs><style>.cls-1{fill:#242424;}</style></defs><g id="Layer_2" data-name="Layer 2"><g id="Layer_1-2" data-name="Layer 1"><g id="Circle"><path class="cls-1" d="M31.15,62.3A31.15,31.15,0,1,1,62.3,31.15,31.18,31.18,0,0,1,31.15,62.3Zm0-60A28.85,28.85,0,1,0,60,31.15,28.88,28.88,0,0,0,31.15,2.3Z"/></g><path class="cls-1" d="M27.65,25.05h-9a.9.9,0,0,1,0-1.8h9a.9.9,0,0,1,0,1.8Z"/><path class="cls-1" d="M27.65,30.05h-9a.9.9,0,0,1,0-1.8h9a.9.9,0,0,1,0,1.8Z"/><path class="cls-1" d="M27.65,35.05h-9a.9.9,0,0,1,0-1.8h9a.9.9,0,0,1,0,1.8Z"/><path class="cls-1" d="M43.65,25.05h-9a.9.9,0,0,1,0-1.8h9a.9.9,0,0,1,0,1.8Z"/><path class="cls-1" d="M43.65,30.05h-9a.9.9,0,0,1,0-1.8h9a.9.9,0,0,1,0,1.8Z"/><path class="cls-1" d="M43.65,35.05h-9a.9.9,0,0,1,0-1.8h9a.9.9,0,0,1,0,1.8Z"/><path class="cls-1" d="M28.65,45.05h-12a2.9,2.9,0,0,1-2.9-2.9v-22a2.9,2.9,0,0,1,2.9-2.9h12a2.9,2.9,0,0,1,2.9,2.9v22A2.9,2.9,0,0,1,28.65,45.05Zm-12-26a1.1,1.1,0,0,0-1.1,1.1v22a1.1,1.1,0,0,0,1.1,1.1h12a1.1,1.1,0,0,0,1.1-1.1v-22a1.1,1.1,0,0,0-1.1-1.1Z"/><path class="cls-1" d="M45.65,45.05h-12a2.9,2.9,0,0,1-2.9-2.9v-22a2.9,2.9,0,0,1,2.9-2.9h12a2.9,2.9,0,0,1,2.9,2.9v22A2.9,2.9,0,0,1,45.65,45.05Zm-12-26a1.1,1.1,0,0,0-1.1,1.1v22a1.1,1.1,0,0,0,1.1,1.1h12a1.1,1.1,0,0,0,1.1-1.1v-22a1.1,1.1,0,0,0-1.1-1.1Z"/></g></g></svg>