<svg xmlns="http://www.w3.org/2000/svg" viewBox="0 0 50 50"><defs><style>.cls-1{fill:none;}.cls-2{fill:#242424;}</style></defs><g id="Layer_2" data-name="Layer 2"><g id="Layer_1-2" data-name="Layer 1"><rect class="cls-1" width="50" height="50" rx="4"/><path class="cls-2" d="M37.76,27.59l-.48-1.82a2,2,0,0,0-2.49-1.45,2,2,0,0,0-.7.34c-.13-.57-.28-1.16-.46-1.83l-.18-.66-.67,0c-.88.06-1.69.14-2.46.25A4,4,0,0,0,28.23,21a4.66,4.66,0,0,0,1.43-3.36,4.71,4.71,0,1,0-9.41,0A4.66,4.66,0,0,0,21.68,21a4,4,0,0,0-2.06,1.41c-.72-.1-1.47-.17-2.27-.22l-.68,0-.17.66c-.16.59-.29,1.13-.42,1.64a2.5,2.5,0,0,0-.38-.15,2,2,0,0,0-1.55.21,2,2,0,0,0-1,1.24l-.48,1.82a2,2,0,0,0,.21,1.55,2.07,2.07,0,0,0,1.24.95h0a2.31,2.31,0,0,0,.52.06h.12l-.28,1.08a5.94,5.94,0,0,0,.2.57.65.65,0,0,0,.61.47h.05c2.27,0,6.81,2.12,9.32,3.63h.86c2.45-1.47,6.89-3.66,9.22-3.63a2.2,2.2,0,0,0,.62-.25c.28-.18.19-.79.19-.79-.11-.41-.21-.79-.3-1.15a2,2,0,0,0,.49.08,2.31,2.31,0,0,0,.52-.06h0A2,2,0,0,0,37.76,27.59ZM25,14.61a3,3,0,1,1-3.05,3.05A3,3,0,0,1,25,14.61ZM23.7,22.36h2.52a4.33,4.33,0,0,1,2.12.51,11.47,11.47,0,0,0-3.2,1.46,11.84,11.84,0,0,0-3.49-1.52A4.67,4.67,0,0,1,23.7,22.36Zm-9.1,6.12a.34.34,0,0,1-.23-.18.34.34,0,0,1,0-.28l.48-1.83A.34.34,0,0,1,15,26a.43.43,0,0,1,.28,0,.39.39,0,0,1,.27.47l-.48,1.82a.41.41,0,0,1-.18.23A.34.34,0,0,1,14.6,28.48Zm2.53-1.07c.22-1.06.45-2.14.8-3.49a12.74,12.74,0,0,1,6.38,1.84v8a28.5,28.5,0,0,0-7.92-3.08C16.7,29.43,16.92,28.41,17.13,27.41ZM26,33.75v-8a12.35,12.35,0,0,1,6.23-1.84c.35,1.35.58,2.43.8,3.49s.43,2,.74,3.27A27.37,27.37,0,0,0,26,33.75Zm9.92-5.27a.4.4,0,0,1-.47-.27l-.48-1.82a.39.39,0,0,1,.27-.47h.1a.43.43,0,0,1,.19.05.36.36,0,0,1,.17.23L36.15,28A.37.37,0,0,1,35.89,28.48Z"/></g></g></svg>