<svg xmlns="http://www.w3.org/2000/svg" viewBox="0 0 50 50"><defs><style>.cls-1,.cls-2{fill:none;}.cls-2{stroke:#242424;stroke-miterlimit:10;stroke-width:2px;}</style></defs><g id="Layer_2" data-name="Layer 2"><g id="Layer_1-2" data-name="Layer 1"><rect class="cls-1" width="50" height="50" rx="11.24"/><circle class="cls-2" cx="24.66" cy="16.49" r="4.67"/><path class="cls-2" d="M24.88,37.61c2.72-1.64,8.45-4.56,11.64-4.52-1.1-4.07-1.27-6-2.37-10.11-3.53.22-6.38.68-9.27,2.73"/><path class="cls-2" d="M24.88,37.61c-2.72-1.64-8.63-4.56-11.82-4.52,1.1-4.07,1.27-6,2.37-10.11,3.53.22,6.56.68,9.45,2.73"/><path class="cls-2" d="M18.68,23.87v-.05c0-1.47,2-2.66,4.46-2.66h3c2.46,0,4.46,1.19,4.46,2.66v.05"/><rect class="cls-2" x="11.12" y="25.4" width="2.91" height="5.19" rx="1.46" transform="translate(7.57 -2.28) rotate(14.81)"/><rect class="cls-2" x="35.97" y="25.4" width="2.91" height="5.19" rx="1.46" transform="translate(80.76 45.49) rotate(165.19)"/><line class="cls-2" x1="24.88" y1="25.71" x2="24.88" y2="38.19"/></g></g></svg>