<svg xmlns="http://www.w3.org/2000/svg" viewBox="0 0 62.3 62.3"><defs><style>.cls-1{fill:#242424;}</style></defs><g id="Layer_2" data-name="Layer 2"><g id="Layer_1-2" data-name="Layer 1"><g id="Circle"><path class="cls-1" d="M31.15,62.3A31.15,31.15,0,1,1,62.3,31.15,31.18,31.18,0,0,1,31.15,62.3Zm0-60A28.85,28.85,0,1,0,60,31.15,28.88,28.88,0,0,0,31.15,2.3Z"/></g><path d="M35.51,11.05c.7.14,1.42.23,2.11.42a11.22,11.22,0,0,1,8.19,9.4c.09.77.09,1.55.13,2.31a13.94,13.94,0,0,1,1.55.19A5.18,5.18,0,0,1,47,33.55a5.92,5.92,0,0,1-.84.05H22.66a6.89,6.89,0,0,1-7-6,.8.8,0,0,0-.07-.2V26a1.25,1.25,0,0,0,.07-.26,6.91,6.91,0,0,1,5.62-5.82c.75-.11,1.52-.09,2.32-.13l.05-.18a11.13,11.13,0,0,1,7.8-8.06,19.61,19.61,0,0,1,2.28-.47Zm-9.88,9.43.32.18A6.85,6.85,0,0,1,28.42,23a1.05,1.05,0,1,1-1.76,1.15c-.08-.13-.17-.25-.26-.38a4.82,4.82,0,1,0-3.79,7.7q11.76,0,23.53,0h.31a3.09,3.09,0,1,0-1.31-6A1.12,1.12,0,0,1,44,25.42a1.09,1.09,0,0,1-.34-1.17,9.19,9.19,0,1,0-18-3.77Z"/><path d="M15.61,43.06c.07-.21.13-.42.2-.62a3.34,3.34,0,1,1-.12,1.83,2.09,2.09,0,0,0-.08-.23ZM19,44.81a1.26,1.26,0,1,0-1.25-1.24A1.25,1.25,0,0,0,19,44.81Z"/><path d="M30.91,39a4,4,0,1,1-4-4A4,4,0,0,1,30.91,39Zm-2.11,0A1.9,1.9,0,1,0,26.89,41,1.91,1.91,0,0,0,28.8,39.05Z"/></g></g></svg>