<svg xmlns="http://www.w3.org/2000/svg" viewBox="0 0 50 50"><defs><style>.cls-1{fill:none;}.cls-2{fill:#242424;}</style></defs><g id="Layer_2" data-name="Layer 2"><g id="Layer_1-2" data-name="Layer 1"><rect class="cls-1" width="50" height="50" rx="11.24"/><path class="cls-2" d="M27,14c.43.08.87.14,1.3.26a6.87,6.87,0,0,1,5,5.76c.05.47.05.95.08,1.42.3,0,.64,0,1,.12A3.18,3.18,0,0,1,34,27.8a4.36,4.36,0,0,1-.51,0H19.09a4.25,4.25,0,0,1-4.29-3.71.56.56,0,0,0,0-.12v-.86a.75.75,0,0,0,.05-.16,4.24,4.24,0,0,1,3.44-3.57c.46-.07.93-.05,1.42-.08a1,1,0,0,0,0-.11,6.81,6.81,0,0,1,4.78-5,12.84,12.84,0,0,1,1.4-.28Zm-6.06,5.78.19.11a4.26,4.26,0,0,1,1.52,1.46.64.64,0,1,1-1.08.7l-.16-.23a3,3,0,1,0-2.32,4.73H33.68a1.89,1.89,0,1,0-.8-3.65.71.71,0,0,1-.73-.07.67.67,0,0,1-.21-.72,5.64,5.64,0,1,0-11-2.32Z"/><path class="cls-2" d="M24.6,28.34H19.09a4.74,4.74,0,0,1-4.78-4.12l-.05-.2,0-1h.52l-.49-.11a4.71,4.71,0,0,1,3.86-4,8.76,8.76,0,0,1,1-.07h.1a7.27,7.27,0,0,1,5-5,7.62,7.62,0,0,1,1-.23l.43-.07H27l.46.08c.31.06.62.11.93.19A7.42,7.42,0,0,1,33.78,20c0,.34.06.68.07,1h0l.59.09a3.68,3.68,0,0,1-.36,7.22,3.77,3.77,0,0,1-.58,0Zm-9.34-4.41a.65.65,0,0,1,0,.13,3.71,3.71,0,0,0,3.79,3.27c4.8,0,9.6,0,14.41,0a2.17,2.17,0,0,0,.44,0,2.67,2.67,0,0,0,.27-5.25,3.09,3.09,0,0,0-.6-.08l-.72-.09,0-.87c0-.3,0-.62-.06-.93a6.39,6.39,0,0,0-4.66-5.34,7.63,7.63,0,0,0-.83-.17l-.38-.07h-1a2,2,0,0,1-.36.07,6.09,6.09,0,0,0-.89.19,6.29,6.29,0,0,0-4.45,4.61l-.14.43-.35,0-.47,0a6.58,6.58,0,0,0-.9.06,3.74,3.74,0,0,0-3,3.14,1.62,1.62,0,0,1,0,.19Zm4.41-4.7h0Zm10.21,7.82H19.06a3.46,3.46,0,1,1,2.72-5.53l.12.17c.09.13.17.21.27.15a.15.15,0,0,0,0-.22,3.68,3.68,0,0,0-1.34-1.29L20.35,20l.07-.35a6.08,6.08,0,0,1,5-4.81,6.16,6.16,0,0,1,7,4.7,6.24,6.24,0,0,1,0,2.62c0,.17,0,.2,0,.23s.06.05.23,0a2.42,2.42,0,0,1,2.29.3,2.36,2.36,0,0,1,1,2A2.4,2.4,0,0,1,33.71,27H29.88ZM19,21.14a2.49,2.49,0,0,0-1,.21,2.46,2.46,0,0,0-1.41,2.73,2.49,2.49,0,0,0,2.46,2H33.65A1.4,1.4,0,0,0,35,24.71a1.37,1.37,0,0,0-.56-1.18,1.43,1.43,0,0,0-1.36-.17,1.17,1.17,0,0,1-1.22-.16,1.16,1.16,0,0,1-.38-1.2,5.2,5.2,0,0,0,0-2.19,5.09,5.09,0,0,0-5.88-3.94,5.15,5.15,0,0,0-4.08,3.67A4.54,4.54,0,0,1,23,21.09a1.14,1.14,0,0,1-.33,1.59,1.15,1.15,0,0,1-1.58-.34L21,22.12A2.46,2.46,0,0,0,19,21.14Z"/><path class="cls-2" d="M14.76,33.64c0-.13.08-.26.13-.39A2.05,2.05,0,1,1,16.66,36a2.06,2.06,0,0,1-1.85-1.61.58.58,0,0,0-.05-.14Zm2.06,1.07a.77.77,0,1,0-.77-.76A.78.78,0,0,0,16.82,34.71Z"/><path class="cls-2" d="M16.82,36.5h-.19a2.58,2.58,0,0,1-2.31-2l-.06-.25.06-.86.09-.29a2.56,2.56,0,1,1,2.41,3.41Zm-1.56-2.35,0,.11a1.55,1.55,0,0,0,3.05,0,1.55,1.55,0,0,0-3-.81l-.09.26v.47Zm1.56,1.06A1.28,1.28,0,0,1,15.55,34a1.3,1.3,0,0,1,.38-.91,1.21,1.21,0,0,1,.91-.37,1.27,1.27,0,0,1,0,2.54Zm0-1.54a.25.25,0,0,0-.18.08.25.25,0,0,0-.09.19.27.27,0,0,0,.27.27h0a.27.27,0,0,0,0-.54Z"/><path class="cls-2" d="M24.14,31.17a2.46,2.46,0,1,1-2.46-2.46A2.45,2.45,0,0,1,24.14,31.17Zm-1.29,0a1.17,1.17,0,1,0-2.33,0,1.19,1.19,0,0,0,1.16,1.19A1.17,1.17,0,0,0,22.85,31.17Z"/><path class="cls-2" d="M21.69,34.13a3,3,0,0,1-3-3,3,3,0,0,1,2.95-3,2.86,2.86,0,0,1,2.08.86,2.91,2.91,0,0,1,.88,2.1h0a3,3,0,0,1-2.94,3Zm0-4.92h0a2,2,0,0,0-1.95,2,2,2,0,0,0,2,2h0a1.95,1.95,0,0,0,1.95-2,2,2,0,0,0-1.94-2Zm0,3.64h0a1.68,1.68,0,0,1,0-3.35h0a1.68,1.68,0,0,1,0,3.35Zm0-2.35h0a.67.67,0,0,0-.67.66.69.69,0,0,0,.66.69h0a.67.67,0,0,0,.66-.68h0a.67.67,0,0,0-.2-.48A.64.64,0,0,0,21.69,30.5Z"/></g></g></svg>