<svg xmlns="http://www.w3.org/2000/svg" viewBox="0 0 50 50"><defs><style>.cls-1{fill:none;}.cls-2{fill:#242424;}</style></defs><g id="Layer_2" data-name="Layer 2"><g id="Layer_1-2" data-name="Layer 1"><rect class="cls-1" width="50" height="50" rx="4"/><path class="cls-2" d="M33.49,28.05H19.06a4.46,4.46,0,1,1,.45-8.88,7.14,7.14,0,0,1,13.88.18,6.77,6.77,0,0,1,.16,1.91,3.55,3.55,0,0,1,2,.65A3.39,3.39,0,0,1,33.76,28Zm-3.61-2h3.76A1.4,1.4,0,0,0,35,24.71a1.34,1.34,0,0,0-.56-1.18,1.46,1.46,0,0,0-1.36-.17,1.17,1.17,0,0,1-1.22-.16,1.15,1.15,0,0,1-.38-1.2,5.13,5.13,0,0,0-5.89-6.13,5.07,5.07,0,0,0-4.08,3.67A4.54,4.54,0,0,1,23,21.09a1.14,1.14,0,0,1-.33,1.59,1.17,1.17,0,0,1-1.64-.42L21,22.09a2.46,2.46,0,1,0-1.9,4Zm-8.53-3.9Z"/><path class="cls-2" d="M17.08,36.4h-.16a2.1,2.1,0,0,1-1.87-1.63L15,34.61l0-.73.08-.25a2.08,2.08,0,1,1,2,2.77ZM17,34.34a.1.1,0,0,0,.07.06l.09,0c0-.09,0-.1-.07-.11s-.07,0-.08.06Z"/><path class="cls-2" d="M22.15,33.79a2.71,2.71,0,0,1,0-5.41,2.51,2.51,0,0,1,1.91.78,2.66,2.66,0,0,1,.8,1.92A2.73,2.73,0,0,1,24.06,33a2.69,2.69,0,0,1-1.91.79Zm0-3.41h0a.71.71,0,0,0-.71.71.75.75,0,0,0,.21.5.72.72,0,0,0,.5.2.53.53,0,0,0,.49-.2.71.71,0,0,0,.21-.51h0a.67.67,0,0,0-.21-.5A.68.68,0,0,0,22.15,30.38Z"/></g></g></svg>