<svg xmlns="http://www.w3.org/2000/svg" viewBox="0 0 50 50"><defs><style>.cls-1{fill:none;}.cls-2{fill:#242424;}</style></defs><g id="Layer_2" data-name="Layer 2"><g id="Layer_1-2" data-name="Layer 1"><rect class="cls-1" width="50" height="50" rx="4"/><path class="cls-2" d="M13.85,29.1c.07-.4.11-.79.2-1.18a7.21,7.21,0,0,1,2-3.6l9-9a1.05,1.05,0,0,1,1.82.42,1,1,0,0,1-.18.9,3.08,3.08,0,0,1-.24.27l-8.82,8.82a5.56,5.56,0,0,0-1.4,2.2,5.32,5.32,0,0,0,1.41,5.5,5.26,5.26,0,0,0,6,.88,5.5,5.5,0,0,0,1.46-1.07c3-3,5.94-6,8.93-8.93a3.17,3.17,0,0,0-4.23-4.72,2.09,2.09,0,0,0-.22.2L21.33,28a1.06,1.06,0,0,0,1.29,1.67,2.1,2.1,0,0,0,.27-.24l5.27-5.27A1.06,1.06,0,0,1,29.65,24a1,1,0,0,1,.15,1.48,1.54,1.54,0,0,1-.17.19L24.32,31a3.17,3.17,0,0,1-4.71-4.24l.25-.27q4.07-4.06,8.14-8.14a5.19,5.19,0,0,1,3.52-1.63A5,5,0,0,1,36,18.78a5.18,5.18,0,0,1,.27,6,5.88,5.88,0,0,1-.8,1q-4.44,4.45-8.9,8.9a7.42,7.42,0,0,1-11.21-.67,7,7,0,0,1-1.48-3.82c0-.06,0-.12,0-.18Z"/></g></g></svg>