<svg xmlns="http://www.w3.org/2000/svg" viewBox="0 0 62.3 62.3"><defs><style>.cls-1{fill:#242424;}</style></defs><g id="Layer_2" data-name="Layer 2"><g id="Layer_1-2" data-name="Layer 1"><g id="Circle"><path class="cls-1" d="M31.15,62.3A31.15,31.15,0,1,1,62.3,31.15,31.18,31.18,0,0,1,31.15,62.3Zm0-60A28.85,28.85,0,1,0,60,31.15,28.88,28.88,0,0,0,31.15,2.3Z"/></g><path class="cls-1" d="M47.65,30.92v.78c-.15.37-.28.76-.45,1.12-.49,1-1,2-1.49,3-1.22,2.45-2.45,4.91-3.66,7.37a1.19,1.19,0,0,1-1.22.76c-.39,0-.79,0-1.19,0-7.54,0-15.09,0-22.64,0a3.43,3.43,0,0,1-1.18-.22,2.06,2.06,0,0,1-1.17-1.44V20a2.13,2.13,0,0,1,2.44-1.68H24.3a2.31,2.31,0,0,1,2,1c.6.87,1.22,1.71,1.83,2.58a.55.55,0,0,0,.52.27H40.24a2,2,0,0,1,2.19,2.18c0,1.31,0,2.62,0,3.93v.36h2.3a2.72,2.72,0,0,1,2.32,1A6.94,6.94,0,0,1,47.65,30.92ZM17.14,42H40.23a.35.35,0,0,0,.36-.23c.57-1.18,1.16-2.35,1.74-3.52l3.26-6.54A.68.68,0,0,0,45,30.65a1.72,1.72,0,0,0-.32,0H23.2a1,1,0,0,0-1.07.69q-1.53,3.3-3.08,6.59ZM40.49,24.15H28.58a2.21,2.21,0,0,1-1.94-1c-.61-.87-1.24-1.73-1.85-2.6a.56.56,0,0,0-.53-.28H16.61V38.56l.18-.38,3.6-7.69a4,4,0,0,1,.38-.67,2.88,2.88,0,0,1,2.5-1.13H40.49Z"/></g></g></svg>