<svg xmlns="http://www.w3.org/2000/svg" viewBox="0 0 50 50"><defs><style>.cls-1{fill:none;}.cls-2{fill:#242424;}</style></defs><g id="Layer_2" data-name="Layer 2"><g id="Layer_1-2" data-name="Layer 1"><rect class="cls-1" width="50" height="50" rx="3.96"/><path class="cls-2" d="M34.06,12.35H17.48a4.25,4.25,0,0,0-2.86.94,4,4,0,0,0-1.29,3.22V32.85l0,.28c.16,1.42.79,3,4.28,3H34.07a1.65,1.65,0,0,0,1.79-1.79V14.14A1.65,1.65,0,0,0,34.06,12.35Zm-.21,17.82H18.48V14.35H33.86ZM15.92,14.8a1.66,1.66,0,0,1,.56-.29v15.7a4.58,4.58,0,0,0-1.15.25V16.51A2.17,2.17,0,0,1,15.92,14.8Zm1.72,19.37c-1.84,0-2.16-.45-2.25-1s.24-1,2.07-1H33.85v2Z"/><path class="cls-2" d="M23.28,23.52l-.61,3.57,3.21-1.69,3.2,1.69-.61-3.57L31.06,21l-3.58-.52-1.6-3.25-1.61,3.25L20.69,21Zm1.66-2.14.94-1.9.94,1.9,2.1.31L27.4,23.17l.35,2.09-1.87-1-1.88,1,.36-2.09-1.52-1.48Z"/></g></g></svg>