<svg xmlns="http://www.w3.org/2000/svg" viewBox="0 0 50 50"><defs><style>.cls-1{fill:none;}.cls-2{fill:#242424;}</style></defs><g id="Layer_2" data-name="Layer 2"><g id="Layer_1-2" data-name="Layer 1"><rect class="cls-1" width="50" height="50" rx="3.96"/><path class="cls-2" d="M32,20.92H21.67a1,1,0,0,1,0-2H32a1,1,0,0,1,0,2Z"/><circle class="cls-2" cx="17.26" cy="19.92" r="1.36"/><path class="cls-2" d="M32,25.68H21.67a1,1,0,0,1,0-2H32a1,1,0,0,1,0,2Z"/><circle class="cls-2" cx="17.26" cy="24.68" r="1.36"/><path class="cls-2" d="M32,30.42H21.67a1,1,0,0,1,0-2H32a1,1,0,0,1,0,2Z"/><circle class="cls-2" cx="17.26" cy="29.42" r="1.36"/><path class="cls-2" d="M34.6,37.46H14.9A2.94,2.94,0,0,1,12,34.53V14.83A2.94,2.94,0,0,1,14.9,11.9H34.6a2.94,2.94,0,0,1,2.93,2.93v19.7A2.94,2.94,0,0,1,34.6,37.46ZM14.9,13.9a.93.93,0,0,0-.93.93v19.7a.93.93,0,0,0,.93.93H34.6a.93.93,0,0,0,.93-.93V14.83a.93.93,0,0,0-.93-.93Z"/></g></g></svg>