<svg xmlns="http://www.w3.org/2000/svg" viewBox="0 0 50 50"><defs><style>.cls-1{fill:none;}.cls-2{fill:#242424;}</style></defs><g id="Layer_2" data-name="Layer 2"><g id="Layer_1-2" data-name="Layer 1"><rect class="cls-1" width="50" height="50" rx="4.03"/><path class="cls-2" d="M25,37A12,12,0,1,1,37,25,12,12,0,0,1,25,37Zm0-22A10,10,0,1,0,35,25,10,10,0,0,0,25,15Z"/><path d="M24.26,27.25a5.37,5.37,0,0,1,.23-1.59,4.06,4.06,0,0,1,.86-1.29l1.11-1.14a2.55,2.55,0,0,0,.71-1.72,1.94,1.94,0,0,0-.47-1.38,1.72,1.72,0,0,0-1.35-.5,2,2,0,0,0-1.38.45,1.56,1.56,0,0,0-.52,1.23H21.88a2.85,2.85,0,0,1,1-2.21,3.64,3.64,0,0,1,2.49-.84,3.44,3.44,0,0,1,2.49.86,3.1,3.1,0,0,1,.89,2.34,4.19,4.19,0,0,1-1.37,2.91l-.92.91a2.85,2.85,0,0,0-.61,2Zm-.06,2.68a.88.88,0,0,1,.23-.64.84.84,0,0,1,.69-.26.87.87,0,0,1,.69.26.89.89,0,0,1,.24.64.85.85,0,0,1-.24.63.9.9,0,0,1-.69.26.88.88,0,0,1-.69-.26A.85.85,0,0,1,24.2,29.93Z"/></g></g></svg>