<svg xmlns="http://www.w3.org/2000/svg" viewBox="0 0 50 50"><defs><style>.cls-1{fill:#242424;}.cls-2{fill:none;}</style></defs><g id="Layer_2" data-name="Layer 2"><g id="Layer_1-2" data-name="Layer 1"><path class="cls-1" d="M18.25,21.48l-.34,2.14h3.42a13,13,0,0,0-4.15,8.67,5.13,5.13,0,0,0,1.73,4.18,6.35,6.35,0,0,0,3.79,1.31l.15,0V37l-.11,0c-1.45-.33-3.86-1.29-3.88-4.22,0-2.19,2.24-6.27,4.84-8l-.69,4h2.2l1.23-7.29Z"/><path class="cls-1" d="M20.38,11.8a2.07,2.07,0,0,0-2.07,2l-.08,5.75h2.36l.06-5.45h9.68l.07,14.77H27.3l-.4,2.36h3.79a2.18,2.18,0,0,0,2.08-2.16l0-17.32Z"/><rect class="cls-2" width="50" height="50" rx="4.03"/></g></g></svg>