<svg xmlns="http://www.w3.org/2000/svg" viewBox="0 0 50 50"><defs><style>.cls-1{fill:none;}.cls-2{fill:#242424;}</style></defs><g id="Layer_2" data-name="Layer 2"><g id="Layer_1-2" data-name="Layer 1"><rect class="cls-1" width="50" height="50" rx="4"/><path class="cls-2" d="M12.71,15.92c.06-.13.11-.26.18-.39a1.23,1.23,0,0,1,1-.61H36.1a1.28,1.28,0,0,1,1.4,1,2,2,0,0,1,0,.43V27.94A1.31,1.31,0,0,1,36,29.43H14.31c-1,0-1.23-.18-1.6-1.05ZM25.1,28.4h11c.41,0,.45,0,.45-.46V16.38c0-.4,0-.45-.46-.45H14.19c-.41,0-.46.05-.46.46V27.9c0,.48,0,.5.51.5Z"/><path class="cls-2" d="M25.59,29.89H14.31a1.81,1.81,0,0,1-2-1.33l0-.18,0-12.65,0-.11a3,3,0,0,1,.15-.31,1.69,1.69,0,0,1,1.33-.84,1.72,1.72,0,0,1,.32,0h22A1.74,1.74,0,0,1,38,15.86a3,3,0,0,1,0,.52V27.94a1.77,1.77,0,0,1-2,1.95Zm-12.43-1.6c.28.61.42.69,1.15.69H36c.76,0,1-.28,1-1V16.38a2,2,0,0,0,0-.35.87.87,0,0,0-1-.67H13.93a.78.78,0,0,0-.64.39l-.11.22,0,0Zm22.9.57H14.24c-.74,0-1-.23-1-1V16.39c0-.66.25-.91.91-.91H36.05c.66,0,.92.25.92.9V27.94C37,28.61,36.72,28.86,36.06,28.86ZM14.19,28H36.06V16.38H14.19V28Z"/><path class="cls-2" d="M12.71,32.74a.65.65,0,0,1,.71-.41H23c.2,0,.3,0,.37-.24a2,2,0,0,1,3.74,0,.31.31,0,0,0,.35.24c3.08,0,6.17,0,9.26,0h.33a.51.51,0,0,1,.44.48.5.5,0,0,1-.4.5,2.19,2.19,0,0,1-.36,0H27.51a.32.32,0,0,0-.37.24,2,2,0,0,1-1.86,1.27,2,2,0,0,1-1.88-1.29c-.06-.18-.15-.22-.33-.22H13.43a.71.71,0,0,1-.72-.37Zm11.57.1a1,1,0,0,0,1,1,1,1,0,0,0,1-1,1,1,0,0,0-2,0Z"/><path class="cls-2" d="M25.28,35.33A2.5,2.5,0,0,1,23,33.81H13.42a1.13,1.13,0,0,1-1.11-.63l-.05-.09,0-.51a1.08,1.08,0,0,1,1.14-.71H23a2.52,2.52,0,0,1,2.26-1.53,2.45,2.45,0,0,1,2.29,1.52h9.21l.4,0a1,1,0,0,1,.82.91,1,1,0,0,1-.77,1,3.25,3.25,0,0,1-.44,0H27.55A2.48,2.48,0,0,1,25.28,35.33ZM23.07,32.9a.74.74,0,0,1,.76.53,1.56,1.56,0,0,0,2.89,0,.77.77,0,0,1,.79-.55h9.26l.27,0a.34.34,0,0,0-.28-.1H27.49a.75.75,0,0,1-.77-.53,1.57,1.57,0,0,0-1.43-1h0a1.57,1.57,0,0,0-1.44,1,.76.76,0,0,1-.79.54H13.42c-.17,0-.23,0-.26.05h0s.11.06.26.06h9.65Zm2.21,1.4h0a1.45,1.45,0,0,1-1.44-1.46h0a1.46,1.46,0,0,1,.43-1,1.36,1.36,0,0,1,1-.42,1.46,1.46,0,0,1,1.44,1.47,1.44,1.44,0,0,1-.44,1A1.42,1.42,0,0,1,25.28,34.3Zm0-2a.51.51,0,0,0-.37.15.54.54,0,0,0-.16.39h0a.54.54,0,0,0,.53.55.47.47,0,0,0,.39-.16.6.6,0,0,0,.17-.38.55.55,0,0,0-.55-.55Z"/><path class="cls-2" d="M22.2,22.15V18.83c0-.31.11-.53.34-.57a.85.85,0,0,1,.5.09l4.76,3.38a.51.51,0,0,1,0,.89L23.05,26a.5.5,0,0,1-.56.07.52.52,0,0,1-.29-.52Zm4.45,0-3.41-2.43V24.6Z"/><path class="cls-2" d="M22.71,26.57a.94.94,0,0,1-.43-.11,1,1,0,0,1-.54-.92V18.83a.9.9,0,0,1,.73-1,1.19,1.19,0,0,1,.82.16l4.76,3.38a1,1,0,0,1,.45.81,1,1,0,0,1-.46.82l-4.73,3.37A1.09,1.09,0,0,1,22.71,26.57Zm-.06-4.42v3.39c0,.09,0,.1,0,.11l.1,0,4.73-3.37c.06,0,.08-.08.08-.09a.23.23,0,0,0-.07-.06C26,21,24.37,19.84,22.78,18.73l-.13,0a.45.45,0,0,1,0,.12Zm.14,3.33V18.86l4.65,3.31Zm.9-4.86v3.1l2.18-1.55Z"/></g></g></svg>