<svg xmlns="http://www.w3.org/2000/svg" viewBox="0 0 62.3 62.3"><defs><style>.cls-1{fill:#242424;}</style></defs><g id="Layer_2" data-name="Layer 2"><g id="Layer_1-2" data-name="Layer 1"><g id="Circle"><path class="cls-1" d="M31.15,62.3A31.15,31.15,0,1,1,62.3,31.15,31.18,31.18,0,0,1,31.15,62.3Zm0-60A28.85,28.85,0,1,0,60,31.15,28.88,28.88,0,0,0,31.15,2.3Z"/></g><path class="cls-1" d="M38.7,30.43l-11.88-7v14C30.78,35.08,34.66,32.8,38.7,30.43Z"/><path class="cls-1" d="M39.65,46.55h-17a9.91,9.91,0,0,1-9.9-9.9v-11a9.91,9.91,0,0,1,9.9-9.9h17a9.91,9.91,0,0,1,9.9,9.9v11A9.91,9.91,0,0,1,39.65,46.55Zm-17-29a8.1,8.1,0,0,0-8.1,8.1v11a8.1,8.1,0,0,0,8.1,8.1h17a8.1,8.1,0,0,0,8.1-8.1v-11a8.1,8.1,0,0,0-8.1-8.1Z"/></g></g></svg>