<svg xmlns="http://www.w3.org/2000/svg" viewBox="0 0 50 50"><defs><style>.cls-1{fill:none;}.cls-2{fill:#242424;}</style></defs><g id="Layer_2" data-name="Layer 2"><g id="Layer_1-2" data-name="Layer 1"><rect class="cls-1" width="50" height="50" rx="11.24"/><path class="cls-2" d="M11.32,15.12c.07-.14.13-.29.21-.43A1.35,1.35,0,0,1,12.61,14H37.1a1.41,1.41,0,0,1,1.54,1.14,2.58,2.58,0,0,1,0,.48q0,6.38,0,12.74A1.45,1.45,0,0,1,37,30H13.09c-1.05,0-1.36-.2-1.77-1.15ZM25,28.87H37.05c.46,0,.5,0,.5-.5V15.63c0-.45-.06-.5-.51-.5H13c-.45,0-.5,0-.5.51V28.32c0,.53,0,.55.56.55Z"/><path class="cls-2" d="M25.52,30.5H13.09A2,2,0,0,1,10.86,29l0-.19,0-13.94.06-.13a2.7,2.7,0,0,1,.17-.34,1.88,1.88,0,0,1,1.46-.93H37.1a1.93,1.93,0,0,1,2,1.55,3.63,3.63,0,0,1,0,.57V28.36A1.94,1.94,0,0,1,37,30.5Zm-13.7-1.76c.3.68.46.76,1.27.76H37c.84,0,1.16-.31,1.16-1.14V15.62a1.59,1.59,0,0,0,0-.38.94.94,0,0,0-1-.74H12.67a.85.85,0,0,0-.71.43,1.92,1.92,0,0,0-.12.25l0,0Zm25.23.63H13c-.81,0-1.06-.25-1.06-1.05V15.64c0-.73.28-1,1-1H37c.73,0,1,.28,1,1V28.37C38.05,29.1,37.78,29.37,37.05,29.37Zm-24.1-1h24.1V15.63H13V28.37Z"/><path class="cls-2" d="M11.32,33.66c.14-.38.42-.46.79-.46h10.6a.35.35,0,0,0,.4-.27,2.21,2.21,0,0,1,4.12,0,.34.34,0,0,0,.39.26h10.2l.37,0a.56.56,0,0,1,.48.53.54.54,0,0,1-.44.55,1.8,1.8,0,0,1-.4,0c-3.4,0-6.8,0-10.2,0a.35.35,0,0,0-.4.27,2.22,2.22,0,0,1-4.13,0,.31.31,0,0,0-.36-.25H12.11a.78.78,0,0,1-.79-.42Zm12.75.1a1.11,1.11,0,0,0,1.09,1.11,1.11,1.11,0,1,0-1.09-1.11Z"/><path class="cls-2" d="M25.17,36.5a2.72,2.72,0,0,1-2.5-1.67H12.11a1.25,1.25,0,0,1-1.23-.69L10.82,34l0-.55a1.2,1.2,0,0,1,1.25-.79H22.67a2.71,2.71,0,0,1,5,0H37.82a3.17,3.17,0,0,1,.44,0,1,1,0,0,1,.06,2.06,2.7,2.7,0,0,1-.49,0c-3.38,0-6.77,0-10.15,0A2.74,2.74,0,0,1,25.17,36.5Zm-2.43-2.67a.8.8,0,0,1,.83.58,1.72,1.72,0,0,0,3.19,0,.85.85,0,0,1,.87-.6c3.4,0,6.8,0,10.2,0a1.51,1.51,0,0,0,.3,0,.4.4,0,0,0-.31-.1H27.61a.83.83,0,0,1-.85-.59A1.74,1.74,0,0,0,25.18,32h0a1.72,1.72,0,0,0-1.59,1.08.85.85,0,0,1-.87.6H12.1c-.18,0-.25,0-.28.06h0a.42.42,0,0,0,.29.07H22.74Zm2.43,1.54h0a1.61,1.61,0,0,1-1.59-1.61h0a1.66,1.66,0,0,1,.48-1.14,1.49,1.49,0,0,1,1.13-.46,1.62,1.62,0,0,1,1.6,1.62,1.64,1.64,0,0,1-.49,1.13A1.57,1.57,0,0,1,25.17,35.37Zm0-2.21a.54.54,0,0,0-.41.18.61.61,0,0,0-.19.42h0a.61.61,0,0,0,.6.61.51.51,0,0,0,.42-.18.61.61,0,0,0,.19-.42.63.63,0,0,0-.61-.61Z"/><path class="cls-2" d="M21.78,22V18.32c0-.34.12-.58.38-.62a.81.81,0,0,1,.55.1q2.63,1.85,5.24,3.72a.56.56,0,0,1,0,1l-5.22,3.71a.57.57,0,0,1-.62.08.57.57,0,0,1-.32-.57Zm4.91,0-3.76-2.67v5.35Z"/><path class="cls-2" d="M22.34,26.85a1.12,1.12,0,0,1-.47-.11,1.08,1.08,0,0,1-.59-1v-7.4a1,1,0,0,1,.81-1.12,1.37,1.37,0,0,1,.9.19q2.64,1.84,5.25,3.72a1.06,1.06,0,0,1,0,1.79L23,26.62A1.15,1.15,0,0,1,22.34,26.85ZM22.28,22v3.74c0,.1,0,.11,0,.12l.11,0,5.22-3.71c.06-.05.08-.08.08-.09a.27.27,0,0,0-.07-.08l-5.24-3.71a.37.37,0,0,0-.14,0,.61.61,0,0,1,0,.14Zm.15,3.67V18.36L27.55,22Zm1-5.35v3.41L25.82,22Z"/></g></g></svg>