<svg xmlns="http://www.w3.org/2000/svg" viewBox="0 0 322 322"><defs><style>.cls-1{fill:none;stroke:#242424;stroke-miterlimit:10;stroke-width:5px;}.cls-2,.cls-3{fill:#242424;}.cls-3{font-size:53.63px;font-family:Arial-BoldMT, Arial;font-weight:700;}</style></defs><g id="Layer_2" data-name="Layer 2"><g id="Layer_1-2" data-name="Layer 1"><circle class="cls-1" cx="161" cy="161" r="158.5"/><path class="cls-2" d="M106.33,129.79h71.84a8.59,8.59,0,0,1,1.76.1,4,4,0,0,1-.66,8c-.42,0-.84,0-1.26,0H106.33v67.91c0,3.16,1.55,4.7,4.74,4.7h95.6c3.19,0,4.74-1.53,4.74-4.7V137.85h-1.47c-4.75,0-9.51,0-14.27,0-2.65,0-4.49-1.7-4.47-4.08s1.84-4,4.43-4h15.72c0-.43.05-.75.05-1.07,0-3.57,0-7.15,0-10.72a4.05,4.05,0,0,0-4.32-4.35c-2.49,0-5,0-7.45,0a4.1,4.1,0,0,1-4.39-4,4,4,0,0,1,4.4-4,82.3,82.3,0,0,1,9.82.27,11.78,11.78,0,0,1,10,11.44c.05,1.93,0,3.87,0,5.8v82.81c0,6-3.47,10.7-9,12.18a13.67,13.67,0,0,1-3.49.42q-48.12,0-96.23,0A12.08,12.08,0,0,1,98.25,206q0-44,0-88c0-7.23,5.26-12.44,12.52-12.46,2.49,0,5,0,7.45,0a4,4,0,1,1,0,8.06c-2.52,0-5,0-7.57,0a4,4,0,0,0-4.32,4.23C106.31,121.78,106.33,125.69,106.33,129.79Z"/><path class="cls-2" d="M158.93,105.58h15.53c2.77,0,4.63,1.64,4.61,4.07s-1.85,4-4.55,4H143.21c-2.69,0-4.53-1.63-4.55-4s1.82-4.06,4.61-4.07Z"/><path class="cls-2" d="M126.53,109.51c0-2.56,0-5.12,0-7.68a4,4,0,1,1,8.07,0q0,7.75,0,15.5a4,4,0,1,1-8.07,0C126.52,114.72,126.53,112.12,126.53,109.51Z"/><path class="cls-2" d="M191.2,109.64c0,2.56,0,5.12,0,7.69a4.05,4.05,0,1,1-8.08,0q0-7.75,0-15.5a4,4,0,1,1,8.07,0C191.21,104.43,191.2,107,191.2,109.64Z"/><text class="cls-3" transform="translate(144.05 190.97)">1</text></g></g></svg>