<svg xmlns="http://www.w3.org/2000/svg" viewBox="0 0 50 50"><defs><style>.cls-1{fill:none;}.cls-2{fill:#242424;}</style></defs><g id="Layer_2" data-name="Layer 2"><g id="Layer_1-2" data-name="Layer 1"><rect class="cls-1" width="50" height="50" rx="3.96"/><rect class="cls-2" x="15.38" y="18.92" width="19.37" height="2"/><path class="cls-2" d="M33.83,13.11H16.31a3,3,0,0,0-3,3V33.63a3,3,0,0,0,3,3H33.83a3,3,0,0,0,3-3V16.11A3,3,0,0,0,33.83,13.11Zm1,20.52a1,1,0,0,1-1,1H16.31a1,1,0,0,1-1-1V16.11a1,1,0,0,1,1-1h2.06v1.15h1.68V15.11h4.37v1.15H26.1V15.11h4.38v1.15h1.67V15.11h1.68a1,1,0,0,1,1,1Z"/><path class="cls-2" d="M30.37,26l-4.52-3.08A1.42,1.42,0,0,0,23.63,24v1.9H20.05a1,1,0,0,0,0,2h3.58V30.2a1.44,1.44,0,0,0,1.42,1.42,1.38,1.38,0,0,0,.8-.25l4.52-3.08a1.41,1.41,0,0,0,0-2.34ZM25.63,29.1v-4l2.91,2Z"/></g></g></svg>