<svg xmlns="http://www.w3.org/2000/svg" viewBox="0 0 50 50"><defs><style>.cls-1,.cls-2{fill:none;}.cls-2{stroke:#242424;stroke-miterlimit:10;stroke-width:2px;}.cls-3{fill:#242424;}</style></defs><g id="Layer_2" data-name="Layer 2"><g id="Layer_1-2" data-name="Layer 1"><rect class="cls-1" width="50" height="50" rx="3.96"/><rect class="cls-2" x="14.05" y="13.7" width="22.5" height="22.5" rx="4"/><line class="cls-2" x1="15.17" y1="19.77" x2="35.43" y2="19.77"/><rect class="cls-3" x="18.3" y="13.7" width="1.75" height="2.25"/><rect class="cls-3" x="24.63" y="13.7" width="1.75" height="2.25"/><rect class="cls-3" x="30.96" y="13.7" width="1.75" height="2.25"/><path class="cls-3" d="M21.44,28.31a.86.86,0,0,0-1.2.14.85.85,0,0,0,.13,1.2l3.29,2.62.16.08.09,0a.92.92,0,0,0,.28.05h0a.86.86,0,0,0,.36-.08s.06,0,.1-.07a.75.75,0,0,0,.18-.13l7.66-8.53a.87.87,0,0,0-.07-1.21.86.86,0,0,0-1.21.07L24.1,30.42Z"/></g></g></svg>